<?xml version="1.0" encoding="utf-8"?>
<!-- Generator: Adobe Illustrator 24.0.1, SVG Export Plug-In . SVG Version: 6.00 Build 0)  -->
<svg version="1.1" id="Layer_1" xmlns="http://www.w3.org/2000/svg" xmlns:xlink="http://www.w3.org/1999/xlink" x="0px" y="0px"
	 viewBox="0 0 100 100" style="enable-background:new 0 0 100 100;" xml:space="preserve">
<path d="M23.3,75.6c-1,0-2,0.1-2.9-0.2c-0.6-0.2-1.1-0.8-1.6-1.3c0.6-0.5,1-1.3,1.7-1.5c0.8-0.3,1.8-0.2,2.9-0.2c0-3.9,0-7.7,0-11.7
	c-0.8,0-1.7,0.1-2.4-0.2c-0.8-0.3-1.4-0.9-2.1-1.3c0.7-0.5,1.4-1.2,2.2-1.5c0.6-0.2,1.3-0.1,2.2-0.1c0-3.9,0-7.7,0-11.8
	c-0.8,0-1.8,0.1-2.6-0.2c-0.7-0.2-1.2-0.9-1.8-1.4c0.6-0.5,1.1-1.2,1.7-1.4c0.8-0.2,1.7-0.1,2.7-0.1c0-4,0-7.8,0-11.9
	c-0.8,0-1.8,0.1-2.7-0.2c-0.7-0.2-1.2-0.9-1.8-1.4c0.6-0.5,1.1-1.2,1.8-1.4c0.8-0.2,1.7-0.1,2.7-0.1c0.1-0.8,0.2-1.5,0.2-2.1
	c0.4-4,3.3-7,7.2-7c12.2-0.1,24.4-0.1,36.5,0c2.9,0,5.2,1.4,6.3,4.1c0.7,1.6,1.6,1.9,3.1,1.9c3.5,0,5,1.6,5,5.1c0,1.9,0,3.8,0,5.7
	c0,4-1.3,5.4-5.3,5.6c-1.5,0.1-2.3,0.4-1.8,2.1c0.1,0.1,0.3,0.3,0.4,0.2c5.6-0.3,7.2,2,6.8,7.3c-0.1,1,0,2.1,0,3.1
	c0,4.7-1.3,6-5.9,6.1c-0.3,0-0.7,0-1.1,0.1c-0.5,1.5-0.3,2.3,1.6,2.3c4.2,0.2,5.4,1.5,5.4,5.7c0,1.9,0,3.8,0,5.7
	c-0.1,3.3-1.6,4.9-4.9,4.9c-1.7,0-2.6,0.4-3.3,2c-1.2,2.6-3.5,4-6.4,4c-12.1,0.1-24.2,0.1-36.3,0c-4,0-6.9-2.9-7.3-6.9
	C23.4,77.1,23.4,76.4,23.3,75.6z M38.7,81.5c1,0,1.7,0.1,2.3,0.1c8.3,0,16.6,0,25,0c3.9,0,5.4-1.5,5.4-5.5c0-16.3,0-32.6,0-48.9
	c0-4-1.5-5.5-5.4-5.5c-8.3,0-16.6,0-25,0c-0.7,0-1.5,0.1-2.3,0.2c0,1.3,0,2.3,0,3.3c0,12.4,0,24.7,0,37.1c0,0.9,0.1,1.8-0.2,2.5
	c-0.2,0.5-0.9,1.1-1.4,1.1c-0.5,0-1.1-0.7-1.3-1.3c-0.2-0.7-0.1-1.5-0.1-2.3c0-12.5,0-25.1,0-37.6c0-0.9,0-1.8,0-2.7
	c-6.8-1.3-9.9,0.7-8.9,5.7c0.9,0,1.9-0.1,2.7,0.2c0.6,0.2,1.1,0.9,1.6,1.3c-0.5,0.5-0.9,1.2-1.5,1.4c-0.9,0.3-2,0.2-2.9,0.3
	c0,4,0,7.8,0,11c1.7,0.8,4.2,1.5,4.2,2.1c0,2.9-2.9,0.9-4.3,2.1c0,3.7,0,7.5,0,11.4c0.9,0.1,1.7-0.1,2.4,0.2
	c0.8,0.3,1.4,0.9,2.1,1.4c-0.7,0.5-1.3,1.2-2,1.4c-0.7,0.2-1.6,0.1-2.4,0.1c0,4.2,0,8,0,11c1.8,1,3.1,1.8,4.5,2.5
	c-1.4,0.7-2.8,1.3-4.5,2.2c-1.1,3.6,2.1,6.5,9.1,4.9c0-3.4,0-6.8,0-10.2c0-1.2-0.3-2.8,1.5-2.6c0.6,0.1,1.4,1.7,1.4,2.7
	C38.8,74.5,38.7,77.9,38.7,81.5z M74.7,27.8c0,3.5,0,6.9,0,10.2c3.9,0.3,4.1,0.1,4.1-3.4c0-1.1,0-2.2,0-3.3
	C78.8,27.7,78.6,27.5,74.7,27.8z M74.5,75.4c3.9,0.6,4.3,0.3,4.3-3.1c0-1.2,0-2.4,0-3.6c0-3.6-0.6-4-4.2-3.1c0,0.5-0.1,1-0.1,1.5
	C74.5,69.8,74.5,72.6,74.5,75.4z M74.6,56.8c4.1,0.3,4.2,0.2,4.2-3.6c0-1,0-2,0-3.1c0-3.6-0.3-3.8-4.2-3.3
	C74.6,50,74.6,53.3,74.6,56.8z"/>
</svg>
