<?xml version="1.0" encoding="utf-8"?>
<!-- Generator: Adobe Illustrator 25.0.1, SVG Export Plug-In . SVG Version: 6.00 Build 0)  -->
<svg version="1.1" id="Capa_1" xmlns="http://www.w3.org/2000/svg" xmlns:xlink="http://www.w3.org/1999/xlink" x="0px" y="0px"
	 viewBox="0 0 512 512" style="enable-background:new 0 0 512 512;" xml:space="preserve">
<style type="text/css">
	.st0{fill:none;}
</style>
<path class="st0" d="M407.8,434.5v-22.1l0,0H36.5v22.1c0,13.2,10.6,23.8,23.8,23.8h371.3l0,0C418.4,458.4,407.8,447.7,407.8,434.5z"
	/>
<path class="st0" d="M455.1,147.6H65.9v-36.7c0-18.8,15.2-34,34.1-34h321c18.8,0,34.1,15.2,34.1,34.1V147.6z"/>
<g>
	<path class="st0" d="M220.6,346L220.6,346c-13.2,0-23.8-10.6-23.8-23.8l0,0c0-13.2,10.6-23.8,23.8-23.8l0,0
		c13.2,0,23.8,10.6,23.8,23.8l0,0C244.5,335.3,233.8,346,220.6,346z"/>
	<path class="st0" d="M300.2,346L300.2,346c-13.2,0-23.8-10.6-23.8-23.8l0,0c0-13.2,10.6-23.8,23.8-23.8l0,0
		c13.2,0,23.8,10.6,23.8,23.8l0,0C324,335.3,313.3,346,300.2,346z"/>
</g>
<path class="st0" d="M379.6,346L379.6,346c-13.2,0-23.8-10.6-23.8-23.8l0,0c0-13.2,10.6-23.8,23.8-23.8l0,0
	c13.2,0,23.8,10.6,23.8,23.8l0,0C403.5,335.3,392.8,346,379.6,346z"/>
<g>
	<path class="st0" d="M141.2,257.4L141.2,257.4c-13.2,0-23.8-10.6-23.8-23.8l0,0c0-13.2,10.6-23.8,23.8-23.8l0,0
		c13.2,0,23.8,10.6,23.8,23.8l0,0C165,246.8,154.4,257.4,141.2,257.4z"/>
	<path class="st0" d="M300.2,257.4L300.2,257.4c-13.2,0-23.8-10.6-23.8-23.8l0,0c0-13.2,10.6-23.8,23.8-23.8l0,0
		c13.2,0,23.8,10.6,23.8,23.8l0,0C324,246.8,313.3,257.4,300.2,257.4z"/>
	<path class="st0" d="M220.6,257.4L220.6,257.4c-13.2,0-23.8-10.6-23.8-23.8l0,0c0-13.2,10.6-23.8,23.8-23.8l0,0
		c13.2,0,23.8,10.6,23.8,23.8l0,0C244.5,246.8,233.8,257.4,220.6,257.4z"/>
</g>
<g>
	<path class="st0" d="M379.6,257.4L379.6,257.4c-13.2,0-23.8-10.6-23.8-23.8l0,0c0-13.2,10.6-23.8,23.8-23.8l0,0
		c13.2,0,23.8,10.6,23.8,23.8l0,0C403.5,246.8,392.8,257.4,379.6,257.4z"/>
	<circle class="st0" cx="105.1" cy="351.1" r="61.3"/>
</g>
<path d="M421.4,68.4h-40.6v-12c0-14.1-11.5-25.5-25.5-25.5s-25.5,11.5-25.5,25.5v11.9H186.6V56.4c0-14.1-11.5-25.5-25.5-25.5
	s-25.5,11.5-25.5,25.5v12.3c-0.7-0.2-1.4-0.3-2.3-0.3H99.4c-23.5,0-42.6,19.1-42.6,42.6v145c0,4.7,3.8,8.5,8.5,8.5s8.5-3.8,8.5-8.5
	v-99.9h307c4.7,0,8.5-3.8,8.5-8.5s-3.8-8.5-8.5-8.5h-307v-28.2c0-14.1,11.5-25.5,25.5-25.5h33.9c0.8,0,1.5-0.1,2.3-0.3v11
	c0,14.1,11.5,25.5,25.5,25.5s25.5-11.5,25.5-25.5V85.4h143.1V96c0,14.1,11.5,25.5,25.5,25.5S380.6,110,380.6,96V85.4h40.6
	c14.1,0,25.5,11.5,25.5,25.5v323.6c0,8.4-6.9,15.3-15.3,15.3s-15.3-6.9-15.3-15.3v-22.1c0-4.7-3.8-8.5-8.5-8.5h-99
	c-4.7,0-8.5,3.8-8.5,8.5s3.8,8.5,8.5,8.5h90.5v13.5c0,5.5,1.4,10.7,3.8,15.3H60.4c-8.4,0-15.3-6.9-15.3-15.3v-13.5h190.6
	c4.7,0,8.5-3.8,8.5-8.5s-3.8-8.5-8.5-8.5h-85.1c14.9-12.8,24.4-31.8,24.4-52.9c0-38.5-31.3-69.8-69.8-69.8S35.4,312.5,35.4,351
	c0,21.1,9.5,40.1,24.4,52.9H36.5c-4.7,0-8.5,3.8-8.5,8.5v22.1c0,17.9,14.5,32.4,32.4,32.4h371.3c17.9,0,32.4-14.5,32.4-32.4V110.9
	C464,87.4,444.9,68.4,421.4,68.4z M169.6,96c0,4.7-3.8,8.5-8.5,8.5s-8.5-3.8-8.5-8.5V56.4c0-4.7,3.8-8.5,8.5-8.5s8.5,3.8,8.5,8.5V96
	z M363.8,96c0,4.7-3.8,8.5-8.5,8.5s-8.5-3.8-8.5-8.5V56.4c0-4.7,3.8-8.5,8.5-8.5s8.5,3.8,8.5,8.5V96z M52.3,351.1
	c0-29.1,23.7-52.8,52.8-52.8s52.8,23.7,52.8,52.8s-23.7,52.8-52.8,52.8S52.3,380.2,52.3,351.1z"/>
<path d="M420.7,156.1c2.2,0,4.4-0.9,6-2.5s2.5-3.7,2.5-6s-0.9-4.4-2.5-6s-3.7-2.5-6-2.5c-2.2,0-4.4,0.9-6,2.5s-2.5,3.7-2.5,6
	s0.9,4.4,2.5,6C416.2,155.2,418.5,156.1,420.7,156.1z"/>
<path d="M270.3,406.4c-1.6,1.6-2.5,3.7-2.5,6c0,2.2,0.9,4.4,2.5,6c1.6,1.6,3.7,2.5,6,2.5s4.4-0.9,6-2.5c1.6-1.6,2.5-3.8,2.5-6
	s-0.9-4.4-2.5-6c-1.6-1.6-3.7-2.5-6-2.5C274,404,271.9,404.9,270.3,406.4z"/>
<path d="M220.6,354.5c17.9,0,32.4-14.5,32.4-32.4c0-17.9-14.5-32.4-32.4-32.4s-32.4,14.5-32.4,32.4
	C188.2,340,202.8,354.5,220.6,354.5z M220.6,306.8c8.4,0,15.3,6.9,15.3,15.3c0,8.4-6.9,15.3-15.3,15.3c-8.4,0-15.3-6.9-15.3-15.3
	C205.3,313.7,212.2,306.8,220.6,306.8z"/>
<path d="M300.2,354.5c17.9,0,32.4-14.5,32.4-32.4c0-17.9-14.5-32.4-32.4-32.4s-32.4,14.5-32.4,32.4
	C267.8,340,282.3,354.5,300.2,354.5z M300.2,306.8c8.4,0,15.3,6.9,15.3,15.3c0,8.4-6.9,15.3-15.3,15.3s-15.3-6.9-15.3-15.3
	C284.9,313.7,291.7,306.8,300.2,306.8z"/>
<path d="M379.6,354.5c17.9,0,32.4-14.5,32.4-32.4c0-17.9-14.5-32.4-32.4-32.4s-32.4,14.5-32.4,32.4
	C347.2,340,361.8,354.5,379.6,354.5z M379.6,306.8c8.4,0,15.3,6.9,15.3,15.3c0,8.4-6.9,15.3-15.3,15.3s-15.3-6.9-15.3-15.3
	C364.3,313.7,371.2,306.8,379.6,306.8z"/>
<path d="M173.5,233.6c0-17.9-14.5-32.4-32.4-32.4s-32.4,14.5-32.4,32.4s14.5,32.4,32.4,32.4S173.5,251.5,173.5,233.6z M125.8,233.6
	c0-8.4,6.9-15.3,15.3-15.3s15.3,6.9,15.3,15.3s-6.9,15.3-15.3,15.3S125.8,242,125.8,233.6z"/>
<path d="M300.2,265.9c17.9,0,32.4-14.5,32.4-32.4s-14.5-32.4-32.4-32.4s-32.4,14.5-32.4,32.4S282.3,265.9,300.2,265.9z M300.2,218.2
	c8.4,0,15.3,6.9,15.3,15.3s-6.9,15.3-15.3,15.3s-15.3-6.9-15.3-15.3S291.7,218.2,300.2,218.2z"/>
<path d="M379.6,265.9c17.9,0,32.4-14.5,32.4-32.4s-14.5-32.4-32.4-32.4s-32.4,14.5-32.4,32.4S361.8,265.9,379.6,265.9z M379.6,218.2
	c8.4,0,15.3,6.9,15.3,15.3s-6.9,15.4-15.3,15.4s-15.3-6.9-15.3-15.3S371.2,218.2,379.6,218.2z"/>
<path d="M220.6,265.9c17.9,0,32.4-14.5,32.4-32.4s-14.5-32.4-32.4-32.4s-32.4,14.5-32.4,32.4S202.8,265.9,220.6,265.9z M220.6,218.2
	c8.4,0,15.3,6.9,15.3,15.3s-6.9,15.3-15.3,15.3c-8.4,0-15.3-6.9-15.3-15.3S212.2,218.2,220.6,218.2z"/>
<path d="M89.6,376.1c1.6,1.6,3.7,2.5,6,2.5s4.4-0.9,6-2.5l33.7-33.7c3.3-3.3,3.3-8.7,0-12s-8.7-3.3-12,0l-27.8,27.8l-9.5-9.5
	c-3.3-3.3-8.7-3.3-12,0s-3.3,8.7,0,12L89.6,376.1z"/>
</svg>
