<?xml version="1.0" encoding="utf-8"?>
<!-- Generator: Adobe Illustrator 24.0.1, SVG Export Plug-In . SVG Version: 6.00 Build 0)  -->
<svg version="1.1" id="Layer_1" xmlns="http://www.w3.org/2000/svg" xmlns:xlink="http://www.w3.org/1999/xlink" x="0px" y="0px"
	 viewBox="0 0 100 100" style="enable-background:new 0 0 100 100;" xml:space="preserve">
<path d="M22.5,48.1c0,1.7,0.1,3.2-0.1,4.7c-0.1,0.6-0.8,1.2-1.2,1.8c-0.4-0.5-1-1.1-1.1-1.6c-0.1-3.7-0.2-7.4,0.1-11
	c0.2-2.7,2.1-4,4.7-4.1c2-0.1,4,0,6.3,0c0-3,0.1-5.6,0-8.3c-0.1-2.6,1.6-2.4,3.3-2.4c1.7,0,3.4-0.1,3.3,2.5c-0.1,2.6,0,5.3,0,8.1
	c2.1,0,3.9,0,6.1,0c0-2.7,0.1-5.3,0-8c-0.2-2.5,1.4-2.6,3.2-2.6c1.8,0,3.6,0,3.4,2.7c-0.1,2.5,0,5.1,0,7.8c2.1,0,4,0,6.1,0
	c0-2.8,0.1-5.5,0-8.1c-0.1-2.4,1.5-2.4,3.1-2.4c1.6,0,3.5-0.4,3.5,2.3c0,2.7,0,5.3,0,8.4c2.4,0,4.5,0,6.7,0c4.1,0.1,5.7,1.7,5.7,5.7
	c0,2.6,0.1,5.1-0.1,7.7c0,0.6-0.6,1.1-1,1.7c-0.4-0.6-1.1-1.1-1.2-1.7c-0.2-0.9-0.1-2-0.1-2.9c-1.5,0.6-3,1.7-4.3,1.6
	c-1.3-0.1-2.5-1.7-3.9-2.2c-0.8-0.3-2.3-0.1-2.9,0.4c-3,2.6-4.4,2.7-7.2-0.1c-1.3-1.3-2.2-1.3-3.4,0c-2.8,2.8-4.4,2.8-7.2,0.1
	c-1.2-1.3-2.1-1.4-3.4-0.1c-2.9,2.9-4.1,2.7-7.4,0c-0.6-0.5-2.3-0.6-2.9-0.1C26.9,50.7,26.6,50.8,22.5,48.1z M48.1,40.4
	c-7.4,0-14.9-0.1-22.3,0.1c-1.1,0-2.7,0.9-3.1,1.9c-1.1,2.7,1.8,3.4,3,4.9c0.3,0.3,2-0.2,2.6-0.8c2.8-2.5,4.5-2.6,7,0.1
	c1.5,1.6,2.4,1.3,3.8-0.1c2.4-2.5,4.3-2.5,6.8,0.1c1.4,1.5,2.4,1.5,3.8,0c2.4-2.6,4.4-2.6,6.7-0.1c1.5,1.7,2.6,1.5,4-0.1
	c2.1-2.3,4.3-2.5,6.2-0.4c2,2.3,3.2,1.8,5-0.1c1.2-1.2,2.1-2.3,1.3-3.7c-0.6-0.9-2.2-1.6-3.3-1.6C62.4,40.3,55.3,40.4,48.1,40.4z
	 M34.9,38c0-2.9,0-5.5,0-8.5C33.1,31.5,33.1,36.3,34.9,38z M47.6,38.2c0-3.1,0-5.7,0-8.6C45.8,31.3,45.7,36.1,47.6,38.2z M60.3,29.7
	c-2,1.5-2,7,0,8.1C60.3,35.1,60.3,32.6,60.3,29.7z"/>
<path d="M67,73c-4.6,0-9.2-0.1-13.8,0c-2.1,0.1-3-0.6-2.9-2.8c0.1-4.4,0.1-8.8,0-13.2c0-1.9,0.6-2.6,2.6-2.6c9.5,0.1,18.9,0,28.4,0
	c1.7,0,2.5,0.5,2.5,2.4c-0.1,4.6-0.1,9.2,0,13.8c0,2-0.9,2.5-2.7,2.5C76.4,72.9,71.7,73,67,73z M52.9,70.3c4.3,0,8.5,0,12.7,0
	c0-2.5,0-4.7,0-7c-4.3,0-8.5,0-12.7,0C52.9,65.7,52.9,67.9,52.9,70.3z M81.2,63.2c-4.4,0-8.6,0-12.8,0c0,2.5,0,4.8,0,7
	c4.4,0,8.5,0,12.8,0C81.2,67.8,81.2,65.6,81.2,63.2z M52.9,60.5c4.3,0,8.5,0,12.8,0c0-1.2,0-2.3,0-3.4c-4.3,0-8.5,0-12.8,0
	C52.9,58.3,52.9,59.3,52.9,60.5z M68.3,60.7c3.5,0,6.7,0,9.9,0c3.4,0,3.6-0.3,2.7-3.6c-4.2,0-8.4,0-12.6,0
	C68.3,58.3,68.3,59.3,68.3,60.7z"/>
<path d="M15.5,64.7c0,4.2,0,8.1,0,12.2c2.6,0,5.1-0.1,7.5,0.1c0.7,0,1.5,0.7,2.2,1.1c-0.8,0.5-1.5,1.2-2.3,1.3
	c-2.6,0.2-5.1,0-7.7,0.1c-1.6,0-2.3-0.7-2.3-2.3c0.1-6.3,0.1-12.7,0-19c0-1.6,0.5-2.3,2.2-2.3c6.6,0.1,13.2,0,19.9,0.1
	c0.7,0,1.9,1.1,2,1.8c0.3,2.4,0.2,4.8,0.1,7.2c0,0.6-0.6,1.2-1,1.8c-0.5-0.3-0.9-0.7-1.4-1c-0.5-0.3-1.1-0.9-1.6-0.9
	C27.3,64.7,21.5,64.7,15.5,64.7z M34.5,58.4c-6.4,0-12.6,0-18.8,0c0,1.4,0,2.6,0,3.8c6.4,0,12.5,0,18.8,0
	C34.5,60.9,34.5,59.8,34.5,58.4z"/>
<path d="M37.2,83c-2.6,0-5.1,0-7.7,0c-1.4,0-2.3-0.3-2.2-2c0.1-3.5-0.1-7,0.1-10.4c0-0.7,1.2-1.8,1.9-1.9c5.2-0.2,10.5-0.2,15.7,0
	c0.7,0,1.9,1.2,1.9,1.9c0.2,3.5,0.2,7,0,10.4c0,0.7-1.2,1.7-2,1.8C42.4,83.2,39.8,83,37.2,83z M35.8,77.2c-2.2,0-4,0-5.9,0
	c0,1.2,0,2.2,0,3.3c2.1,0,3.9,0,5.9,0C35.8,79.4,35.8,78.4,35.8,77.2z M44.4,77.2c-2,0-3.9,0-5.9,0c0,1.2,0,2.2,0,3.3
	c2.1,0,3.9,0,5.9,0C44.4,79.3,44.4,78.4,44.4,77.2z M29.8,74.5c2.1,0,4,0,5.9,0c0-1.2,0-2.1,0-3.1c-2.1,0-3.9,0-5.9,0
	C29.8,72.5,29.8,73.4,29.8,74.5z M44.4,71.4c-2.2,0-4,0-5.8,0c0,1.2,0,2.1,0,3.1c2,0,3.9,0,5.8,0C44.4,73.4,44.4,72.5,44.4,71.4z"/>
<path d="M63.7,22.8c0,2.2-1.9,4-4.1,3.9c-2.2-0.1-4.3-1.9-3.6-3.9c0.6-1.9,2.2-3.7,3.8-4.9C60.6,17.2,63.7,21.1,63.7,22.8z
	 M60.4,20.9c-0.5,0-1,0-1.5,0.1c-0.1,1-0.2,2-0.2,2.9c0.7,0,1.4,0,2.1-0.1C60.7,22.8,60.6,21.8,60.4,20.9z"/>
<path d="M34.5,26.7c-2.2,0-3.9-1.5-4-3.7c-0.1-1.8,2.4-5.2,3.8-5.2c1.4,0,4,3.3,4,5.1C38.4,25,36.7,26.7,34.5,26.7z M35.1,20.9
	c-0.5,0-1,0.1-1.5,0.1c0,1-0.1,2-0.1,2.9c0.7,0,1.4-0.1,2.1-0.1C35.4,22.8,35.2,21.8,35.1,20.9z"/>
<path d="M51.1,22.8c0,2.2-1.9,4-4.1,3.9c-2.2-0.1-3.8-1.7-3.7-3.9c0-1.7,2.5-4.9,3.8-5C48.4,17.7,51.1,21.1,51.1,22.8z M47.9,20.9
	c-0.5,0-1,0-1.5-0.1c-0.1,1-0.3,1.9-0.4,2.9c0.7,0,1.4,0,2.1,0.1C48,22.9,47.9,21.9,47.9,20.9z"/>
<path d="M44.1,66.3c-1.2,0-2.4,0.1-3.5-0.1c-0.5-0.1-0.9-0.7-1.3-1.1c0.4-0.4,0.8-1.1,1.2-1.1c2.4-0.1,4.7-0.1,7.1,0
	c0.4,0,0.9,0.7,1.3,1.1c-0.4,0.4-0.8,1.1-1.2,1.2C46.5,66.4,45.3,66.3,44.1,66.3C44.1,66.3,44.1,66.3,44.1,66.3z"/>
</svg>
