<?xml version="1.0" encoding="utf-8"?>
<!-- Generator: Adobe Illustrator 25.0.1, SVG Export Plug-In . SVG Version: 6.00 Build 0)  -->
<svg version="1.1" id="Capa_1" xmlns="http://www.w3.org/2000/svg" xmlns:xlink="http://www.w3.org/1999/xlink" x="0px" y="0px"
	 viewBox="0 0 512 512" style="enable-background:new 0 0 512 512;" xml:space="preserve">
<path d="M78,490c-2.7,0-5.1-1.5-6.3-3.8l-21-39.4H29.2c-4,0-7.2-3.2-7.2-7.2s3.2-7.2,7.2-7.2h43.7V311.1c0-17.1,13.9-31,31-31h13.9
	V156.8c0-15.9,13-28.9,28.9-28.9h51.4v-27.4l-1.4-0.4c-13.4-3.8-22.4-15.6-22.4-29.3c0-8.8,4.8-20.8,9.3-29.1
	c7.2-13.1,14.5-19.7,21.8-19.7s14.6,6.6,21.8,19.7c4.5,8.3,9.3,20.3,9.3,29.1c0,13.5-9.2,25.5-22.4,29.3l-1.4,0.4v27.4h87v-27.4
	l-1.4-0.4c-13.4-3.8-22.4-15.6-22.4-29.3c0-8.8,4.8-20.8,9.3-29.1c7.2-13.1,14.5-19.7,21.8-19.7s14.6,6.6,21.8,19.7
	c4.5,8.3,9.3,20.3,9.3,29.1c0,13.5-9.2,25.5-22.4,29.3l-1.4,0.4v27.4h51.4c15.9,0,28.9,13,28.9,28.9v123.3h13.9
	c17.1,0,31,13.9,31,31v121.2h43.7c4,0,7.2,3.2,7.2,7.2s-3.2,7.2-7.2,7.2h-21.5l-21.1,39.4c-1.2,2.4-3.7,3.8-6.3,3.8H78z M82.4,475.6
	h347.2l15.4-28.8H67L82.4,475.6z M256,401.1c-8.6,0-15.6,7-15.6,15.6c0,8.6,7,15.6,15.6,15.6s15.6-7,15.6-15.6
	C271.6,408.1,264.6,401.1,256,401.1z M159.4,401.1c-8.6,0-15.6,7-15.6,15.6c0,8.6,7,15.6,15.6,15.6s15.6-7,15.6-15.6
	C174.9,408.1,168,401.1,159.4,401.1z M352.7,386.7c16.5,0,30,13.5,30,30c0,4.4-1,8.6-2.9,12.7l-1.3,2.8h46.2v-69.6l-3.1,1.9
	c-5.1,3.2-11.1,4.8-18.4,4.8c-13.7,0-20.7-5.6-25.7-11.1l-8.2-8.9c-3.4-3.6-6.7-6.4-15.1-6.4c-8.6,0-11.9,2.9-15.1,6.4l-8.2,8.8
	c-5,5.5-12,11.1-25.7,11.1s-20.7-5.6-25.7-11.1l-8.2-8.9c-3.3-3.5-6.7-6.4-15.1-6.4c-8.6,0-11.9,2.9-15.1,6.4l-8.3,8.8
	c-5,5.5-12,11.1-25.7,11.1c-13.7,0-20.7-5.6-25.7-11.1l-8.2-8.9c-3.3-3.5-6.7-6.4-15.1-6.4c-8.6,0-11.9,2.9-15.1,6.4l-8.3,8.8
	c-5,5.5-12,11.1-25.7,11.1c-7.3,0-13.3-1.6-18.4-4.8l-3.1-1.9v69.6h46.5l-1.3-2.8c-1.9-4.1-2.9-8.4-2.9-12.8c0-16.5,13.5-30,30-30
	c16.5,0,30,13.5,30,30c0,4.4-1,8.7-2.9,12.8l-1.3,2.8h44.9l-1.3-2.8c-1.9-4.1-2.9-8.4-2.9-12.8c0-16.5,13.5-30,30-30
	c16.5,0,30,13.5,30,30c0,4.4-1,8.7-2.9,12.8l-1.3,2.8h44.9l-1.4-2.9c-1.9-3.9-2.8-8.3-2.8-12.7C322.7,400.1,336.2,386.7,352.7,386.7
	z M352.7,401.1c-8.6,0-15.6,7-15.6,15.6s7,15.6,15.6,15.6s15.6-7,15.6-15.6S361.3,401.1,352.7,401.1z M103.9,294.6
	c-9.1,0-16.6,7.4-16.6,16.6L87,341.8l6.3,6.9c3.4,3.7,6.6,6.4,15.1,6.4s11.8-2.8,15.1-6.5l8.3-8.9c5.3-5.7,12.1-11,25.7-11
	c13.6,0,20.4,5.3,25.7,11l8.3,8.9c3.3,3.6,6.6,6.4,15.1,6.4c8.5,0,11.8-2.8,15.1-6.5l8.3-8.9c5.3-5.7,12.1-11,25.7-11
	s20.4,5.3,25.7,11l8.3,8.9c3.3,3.6,6.6,6.4,15.1,6.4c8.5,0,11.9-2.9,15.1-6.5l8.2-8.8c5.1-5.4,12.1-11,25.7-11
	c13.6,0,20.7,5.6,25.7,11l8.3,8.9c3.4,3.7,6.6,6.4,15.1,6.4c8.5,0,11.8-2.8,15.1-6.5l6.3-6.8v-30.6c0-9.1-7.4-16.6-16.6-16.6H297.4
	c-4,0-7.2-3.2-7.2-7.2s3.2-7.2,7.2-7.2h82.4v-86.7h-53.9c-4,0-7.3,3.4-7.3,7.3c0,15-12.2,27.1-27.1,27.1c-15,0-27.1-12.2-27.1-27.1
	c0-7-5.7-12.7-12.7-12.7c-7,0-12.7,5.7-12.7,12.7v27.6c0,15-12.2,27.1-27.1,27.1s-27.1-12.2-27.1-27.1v-27.6c0-4-3.4-7.3-7.3-7.3
	h-45.1v86.7h82.4c4,0,7.2,3.2,7.2,7.2s-3.2,7.2-7.2,7.2H103.9z M146.7,142.4c-8,0-14.4,6.5-14.4,14.4V179h45.1
	c12,0,21.8,9.8,21.8,21.8v27.6c0,7,5.7,12.7,12.7,12.7s12.7-5.7,12.7-12.7v-27.6c0-15,12.2-27.1,27.1-27.1c15,0,27.1,12.2,27.1,27.1
	c0,7,5.7,12.7,12.7,12.7c7,0,12.7-5.7,12.7-12.7c0-12,9.8-21.8,21.8-21.8h53.9v-22.2c0-8-6.5-14.4-14.4-14.4H146.7z M305.4,37.7
	c-5.9,5.2-15.3,24.2-15.3,33.1c0,8.9,7.5,16.1,16.7,16.1s16.7-7.2,16.7-16.1c0-8.9-9.4-27.9-15.3-33.1l-1.3-1.2L305.4,37.7z
	 M204,37.7c-5.9,5.2-15.3,24.2-15.3,33.1c0,8.9,7.5,16.1,16.7,16.1S222,79.7,222,70.8c0-8.9-9.4-27.9-15.3-33.1l-1.3-1.2L204,37.7z"
	/>
</svg>
