<?xml version="1.0" encoding="utf-8"?>
<!-- Generator: Adobe Illustrator 24.0.1, SVG Export Plug-In . SVG Version: 6.00 Build 0)  -->
<svg version="1.1" id="Layer_1" xmlns="http://www.w3.org/2000/svg" xmlns:xlink="http://www.w3.org/1999/xlink" x="0px" y="0px"
	 viewBox="0 0 100 100" style="enable-background:new 0 0 100 100;" xml:space="preserve">
<path d="M16.2,51.1c-4.8-0.9-4.8-0.9-4.8-5.7c0-4.9,0.1-9.8,0-14.8c0-2.6,1.1-3.6,3.6-3.6c2.8,0.1,5.6,0,8.3,0
	c-0.2-2.5-0.9-4.9-0.6-7.1c1.2-7.6,9.5-11.1,15.9-6.7c3.3,2.3,6.5,4.8,9.6,7.3c1.3,1.1,2.3,1.1,3.6,0c2.7-2.2,5.6-4.3,8.4-6.4
	c4.6-3.5,9.4-3.8,13.3-0.8c3.9,2.9,4.9,7.2,3,12.7c-0.1,0.2,0,0.4-0.1,1c2.8,0,5.5,0.1,8.3,0c2.8-0.1,4,0.9,4,3.9
	c-0.1,4.8,0,9.6,0,14.5c0,4.8,0,4.8-4.8,5.7c0,1,0,2.1,0,3.2c0,10.1-0.1,20.3,0,30.4c0,2.8-1,3.9-3.9,3.9c-20-0.1-40-0.1-59.9,0
	c-2.9,0-3.9-1-3.9-3.9c0.1-10.1,0-20.3,0-30.4C16.2,53.2,16.2,52.1,16.2,51.1z M52.4,50.7c0,1.3,0,2.3,0,3.3c0,4.1,0.2,8.2-0.1,12.3
	c-0.1,1.1-1.3,2.9-2.2,3.1c-1.8,0.4-2.5-1.2-2.4-3c0-0.9,0-1.8,0-2.7c0-4.3,0-8.5,0-12.8c-9.1,0-17.8,0-26.5,0c0,11,0,21.8,0,32.6
	c19.4,0,38.6,0,57.7,0c0-11,0-21.8,0-32.6c-3.6,0-6.9,0-10.7,0c1.1,1.6,2.2,2.7,2.6,4c0.3,0.9,0,2.6-0.6,3.1
	c-0.7,0.4-2.4,0.1-3.1-0.5c-1.5-1.5-2.5-3.4-3.8-5c-0.6-0.7-1.4-1.6-2.2-1.7C58.3,50.6,55.5,50.7,52.4,50.7z M47.4,32.1
	c-10.5,0-20.8,0-31.1,0c0,4.7,0,9.1,0,13.8c10.4,0,20.7,0,31.1,0C47.4,41.2,47.4,36.8,47.4,32.1z M83.6,46c0-4.8,0-9.4,0-13.9
	c-9.6,0-19.1,0-28.8,0c3.1,4.4,6,8.5,8.9,12.5c0.4,0.6,1.2,1.2,1.8,1.2C71.5,46,77.5,46,83.6,46z M47.4,27c0.2-0.3,0.3-0.6,0.5-0.9
	c-4.6-3.3-9.1-6.8-14-9.6c-2.6-1.5-5.9,1-6.6,4c-0.6,2.8,1.3,6.2,4.4,6.4C36.9,27.2,42.2,27,47.4,27z M52.3,26.4
	c0.1,0.2,0.2,0.5,0.3,0.7c4.8,0,9.7,0,14.5,0c2.8,0,5.1-1.5,5.4-4.2c0.2-1.8-0.7-4.2-1.9-5.5c-2-2-4.6-1.5-6.8,0.1
	c-3.1,2.3-6.2,4.7-9.3,7.1C53.7,25.2,53,25.8,52.3,26.4z M58.6,45.9c-2.2-3.1-3.9-5.6-6.1-8.6c0,3.4,0,5.9,0,8.6
	C54.5,45.9,56.3,45.9,58.6,45.9z"/>
</svg>
