<?xml version="1.0" encoding="utf-8"?>
<!-- Generator: Adobe Illustrator 24.0.1, SVG Export Plug-In . SVG Version: 6.00 Build 0)  -->
<svg version="1.1" id="Capa_1" xmlns="http://www.w3.org/2000/svg" xmlns:xlink="http://www.w3.org/1999/xlink" x="0px" y="0px"
	 viewBox="0 0 512 512" style="enable-background:new 0 0 512 512;" xml:space="preserve">
<path d="M391.2,302.4H206.4l102.1-56.9c10.7-6,14.5-19.5,8.6-30.2L301.8,188c-6-10.7-19.5-14.5-30.2-8.6l-42.5,23.7
	c5-10,8.1-19.9,9.3-29.4c1.9-15.9-1.7-30.2-10.4-41.5c-14.2-18.3-39-24.4-60.3-14.8c-3.8,1.7-5.5,6.1-3.8,9.9
	c1.7,3.8,6.1,5.5,9.9,3.8c15-6.7,32.4-2.5,42.3,10.3c14.3,18.4,8.8,47.1-14.6,77.1l-9.1,5l-6.6-11.7c-1.7-3-3.9-5.7-6.4-7.8
	c1.6-9.5,6-21.9,10.9-29.9c2.2-3.5,1-8.2-2.5-10.3c-3.5-2.2-8.2-1-10.3,2.5c-5.3,8.7-9.9,20.7-12.2,31.3c-6.3-1-12.7,0.1-18.3,3.2
	l-2.6,1.4c-1-21.6,2.3-39.8,9.9-52.8c2.1-3.6,0.9-8.2-2.7-10.2c-3.6-2.1-8.2-0.9-10.2,2.7c-10,17.3-13.9,40.3-11.4,68.4l-9.1,5
	C82.6,186.9,45.2,181,20.1,199.9C2,213.6-4.8,237.7,3.5,258.6c8.5,21.3,29.9,34.3,59.4,37.1L19.4,320c-10.7,5.9-14.5,19.5-8.6,30.2
	L26,377.5c4.1,7.3,11.6,11.4,19.4,11.4c3.7,0,7.4-0.9,10.8-2.8l0,0l49-27.3V481c0,14.7,12,26.6,26.6,26.6h250.8
	c14.7,0,26.6-11.9,26.6-26.6V320.6C409.4,310.5,401.2,302.4,391.2,302.4L391.2,302.4z M141.2,321.5L119,281.6l67.7-37.7l22.2,39.9
	l-33.8,18.9c-1.2,0.3-2.3,0.9-3.2,1.8L141.2,321.5z M278.9,192.5c1.1-0.6,2.3-0.9,3.5-0.9c2.5,0,5,1.3,6.3,3.7l15.2,27.3
	c1.9,3.5,0.7,7.9-2.8,9.8L222,276.5l-22.2-39.9L278.9,192.5z M154.5,213.9c2-1.1,4.2-1.7,6.5-1.7c1.2,0,2.5,0.2,3.7,0.5
	c3.5,1,6.4,3.3,8.1,6.4l6.6,11.7l-67.7,37.7l-6.6-11.8c-1.3-2.3-1.8-4.9-1.6-7.5c0-0.1,0-0.1,0-0.2c0.1-0.8,0.2-1.7,0.5-2.5
	c1-3.5,3.3-6.3,6.4-8.1L154.5,213.9z M17.5,253.1c-5.9-14.6-1-31.6,11.7-41.1c18.4-13.8,46.8-9.4,77.3,11.5l-3.5,1.9
	c-5.5,3.1-9.8,7.8-12.2,13.5c-9.9-3.1-18.8-4.8-31.5-6.2c-4.1-0.4-7.8,2.5-8.3,6.6s2.5,7.8,6.6,8.3c14,1.5,22.3,3.4,31,6.4
	c0.5,3.5,1.6,7,3.4,10.1l6.6,11.8l-8.2,4.6C53.2,284.5,26,274.3,17.5,253.1L17.5,253.1z M49,372.9c-3.4,1.9-7.9,0.6-9.8-2.8
	L24,342.9c-1.9-3.5-0.7-7.9,2.8-9.8l69.4-38.7c0.2-0.1,0.4-0.2,0.6-0.4l9.2-5.1l22.2,39.9l-18.9,10.5c0,0-0.1,0-0.1,0.1L49,372.9z
	 M120.3,480.9V350.4l59.2-33H214v66.4c0,4.1,3.4,7.5,7.5,7.5s7.5-3.4,7.5-7.5v-66.4h56.6v175.1H229v-73.2c0-4.1-3.4-7.5-7.5-7.5
	s-7.5,3.4-7.5,7.5v73.2h-82.1C125.5,492.5,120.3,487.3,120.3,480.9L120.3,480.9z M394.4,480.9c0,6.4-5.2,11.6-11.6,11.6h-82.1V317.4
	h90.5c1.7,0,3.2,1.5,3.2,3.2V480.9z"/>
<path d="M363.7,134.4c0.1,0.9,9.6,92.6-22.5,127.4c-2.8,3-2.6,7.8,0.4,10.6c1.4,1.3,3.3,2,5.1,2c2,0,4-0.8,5.5-2.4
	c36.7-39.8,26.8-135.2,26.4-139.2c-0.4-4.1-4.1-7.1-8.3-6.6C366.2,126.5,363.2,130.2,363.7,134.4L363.7,134.4z"/>
<path d="M432.3,123.2c-12.7,19.4-16.7,36.8-16.9,37.5c-0.9,4,1.6,8,5.6,9c0.6,0.1,1.1,0.2,1.7,0.2c3.4,0,6.5-2.4,7.3-5.8
	c0-0.2,3.7-15.8,15.1-33.1c15-22.7,35.5-37.3,61.1-43.4c4-1,6.5-5,5.6-9c-1-4-5-6.5-9-5.6C473.5,80,449.2,97.3,432.3,123.2
	L432.3,123.2z"/>
<path d="M278.4,82c0,0.2,0.1,0.6,0,1.5l-1.8,21.8c-0.3,2.3-0.7,7.5,3.5,10.7c4.3,3.3,9.4,1.2,11.6,0.3l20-8.4c0.4-0.1,1.4-0.1,1.7,0
	l20.2,8.4c1.3,0.5,3.5,1.4,6.1,1.4c1.8,0,3.6-0.4,5.4-1.8c4.2-3.2,3.7-8.4,3.5-10.7l-1.7-21.8c-0.1-0.9,0-1.3,0-1.5l14.6-17.5
	c1.7-1.9,5-5.8,3.4-10.8c-1.6-5.1-6.8-6.4-9-6.9l-22.1-5.5l-11.6-19.4c-1.1-1.8-3.9-6.6-9.5-6.6l0,0c-5.5,0-8.4,4.8-9.5,6.6l0,0
	l-11.6,19.3l-0.1,0.2l-22.2,5.5c-2.2,0.5-7.4,1.8-8.9,6.9c-1.6,5,1.9,9,3.4,10.8L278.4,82z M295.8,55.7c5-1.2,6.8-3.7,8.4-6.4
	l8.5-14.1l8.5,14.3c1.5,2.6,3.3,5,8.3,6.2l16.4,4.1l-10.6,12.8c-3.5,4.1-3.6,8.7-3.4,12.2l1.2,15.2l-13.9-5.8
	c-3.9-1.7-9.3-1.7-13.3,0L292,100l1.2-15.2c0.2-3.2,0.2-8-3.3-12.1l-10.7-12.8L295.8,55.7z"/>
<path d="M508.1,236.9c1.6-1.8,5-5.8,3.5-10.8c-1.6-5.1-6.8-6.4-9-6.9l-22.1-5.5l-11.7-19.5c-1.1-1.8-4-6.6-9.5-6.6l0,0
	c-5.5,0-8.4,4.8-9.5,6.6l-11.6,19.3l-0.1,0.2l-22.1,5.5c-2.2,0.5-7.4,1.8-9,6.9c-1.6,5,1.9,9,3.5,10.8l14.5,17.5c0,0.2,0,0.6,0,1.5
	l-1.8,21.8c-0.2,2.3-0.7,7.5,3.5,10.7c4.3,3.2,9.3,1.2,11.5,0.3l20-8.4c0.4-0.1,1.4-0.1,1.8,0l20.2,8.4c1.3,0.5,3.5,1.4,6.1,1.4
	c1.8,0,3.6-0.4,5.4-1.8c4.2-3.2,3.8-8.4,3.5-10.7l-1.8-21.8c-0.1-0.9,0-1.3,0-1.5L508.1,236.9z M482,244.9
	c-3.5,4.1-3.6,8.7-3.4,12.2l1.2,15.2l-13.9-5.8c-4-1.6-9.3-1.6-13.2,0l-13.9,5.8l1.2-15.2c0.3-3.5,0.1-8.1-3.3-12.1l-10.6-12.8
	l16.5-4.1c5-1.2,6.8-3.7,8.3-6.3l8.5-14.2l8.2,13.6l0.3,0.5c1.5,2.6,3.3,5.1,8.3,6.4l16.4,4.1L482,244.9z"/>
<path d="M432,79.5c20.7,0,37.5-16.8,37.5-37.5S452.7,4.5,432,4.5S394.5,21.3,394.5,42S411.3,79.5,432,79.5z M432,19.5
	c12.4,0,22.5,10.1,22.5,22.5S444.4,64.5,432,64.5S409.5,54.4,409.5,42S419.6,19.5,432,19.5z"/>
</svg>
