<?xml version="1.0" encoding="utf-8"?>
<!-- Generator: Adobe Illustrator 25.0.1, SVG Export Plug-In . SVG Version: 6.00 Build 0)  -->
<svg version="1.1" id="Capa_1" xmlns="http://www.w3.org/2000/svg" xmlns:xlink="http://www.w3.org/1999/xlink" x="0px" y="0px"
	 viewBox="0 0 512 512" style="enable-background:new 0 0 512 512;" xml:space="preserve">
<style type="text/css">
	.st0{fill:none;}
</style>
<path class="st0" d="M65.6,134h59.7c17.6,0,31.9,14.4,31.9,31.9v60.2c-0.8,4.6-4.4,8.1-8.9,8.9H42.6c-4.6-0.8-8.1-4.4-8.9-8.9V166
	C33.6,148.4,48,134,65.6,134L65.6,134z"/>
<path class="st0" d="M226.2,134h59.7c17.5,0,31.9,14.4,31.9,31.9v60.2c-0.8,4.6-4.4,8.1-8.9,8.9H203.2c-4.6-0.8-8.1-4.4-8.9-8.9V166
	C194.2,148.4,208.6,134,226.2,134L226.2,134z"/>
<path class="st0" d="M386.7,134h59.7c17.5,0,31.9,14.4,31.9,31.9v60.2c-0.8,4.6-4.4,8.1-8.9,8.9H363.7c-4.6-0.8-8.1-4.4-8.9-8.9V166
	C354.7,148.4,369.1,134,386.7,134z"/>
<path class="st0" d="M42.3,292.5h106.3c4.7,0,8.7,3.9,8.7,8.7v152.5c0,4.7-3.9,8.7-8.7,8.7H42.3c-4.7,0-8.7-3.9-8.7-8.7V301.2
	C33.6,296.4,37.6,292.5,42.3,292.5z"/>
<path class="st0" d="M202.8,292.5h106.3c4.7,0,8.7,3.9,8.7,8.7v152.5c0,4.7-3.9,8.7-8.7,8.7H202.8c-4.7,0-8.7-3.9-8.7-8.7V301.2
	C194.2,296.4,198.1,292.5,202.8,292.5z"/>
<path class="st0" d="M363.4,292.5h106.2c4.8,0,8.7,3.9,8.7,8.7v152.5c0,4.7-3.9,8.7-8.7,8.7H363.4c-4.8,0-8.7-3.9-8.7-8.7V301.2
	C354.7,296.4,358.6,292.5,363.4,292.5z"/>
<path class="st0" d="M66.2,278.7h9.2h4.8v-10.4c0.4-2.5,2.4-4.4,4.8-4.8h20.8c2.5,0.4,4.4,2.4,4.8,4.8v10.4h4.8h9.2
	c2.5,0.4,4.4,2.4,4.8,4.8v17.8c-0.4,2.5-2.4,4.4-4.8,4.8H66.2c-2.5-0.4-4.4-2.4-4.8-4.8v-17.8C61.7,281.1,63.7,279.2,66.2,278.7z"/>
<path class="st0" d="M226.7,278.7h9.2h4.8v-10.4c0.4-2.5,2.4-4.4,4.8-4.8h20.8c2.5,0.4,4.4,2.4,4.8,4.8v10.4h4.8h9.2
	c2.4,0.4,4.4,2.4,4.8,4.8v17.8c-0.4,2.5-2.4,4.4-4.8,4.8h-58.6c-2.4-0.4-4.4-2.4-4.8-4.8v-17.8C222.3,281.1,224.2,279.2,226.7,278.7
	L226.7,278.7z"/>
<path class="st0" d="M387.3,278.7h9.2h4.8v-10.4c0.4-2.5,2.4-4.4,4.8-4.8h20.8c2.5,0.4,4.4,2.4,4.8,4.8v10.4h4.8h9.2
	c2.5,0.4,4.4,2.4,4.8,4.8v17.8c-0.4,2.5-2.4,4.4-4.8,4.8h-58.6c-2.5-0.4-4.4-2.4-4.8-4.8v-17.8C382.9,281.1,384.8,279.2,387.3,278.7
	z"/>
<path class="st0" d="M259.6,387.2l12.5,21.8c0.1,0.1,0.1,0.2,0.1,0.3l12.4,21.7c1.1,2,0.4,4.5-1.5,5.5c-0.6,0.4-1.3,0.5-2.1,0.5l0,0
	h-50.3c-2.2,0-4-1.8-4-4.1c0-0.9,0.3-1.7,0.7-2.3l12.3-21.6l12.5-21.8c1.2-2,3.6-2.6,5.5-1.4C258.7,386,259.2,386.6,259.6,387.2z"/>
<path class="st0" d="M95.5,439c16.6,0,30-13.5,30-30c0-16.6-13.5-30-30-30s-30,13.4-30,30C65.5,425.6,78.9,439,95.5,439z"/>
<path class="st0" d="M394.8,382.9h43.6c2.4,0,4.3,2,4.3,4.3v43.6c0,2.4-2,4.3-4.3,4.3h-43.6c-2.4,0-4.3-2-4.3-4.3v-43.6
	C390.4,384.9,392.4,382.9,394.8,382.9L394.8,382.9z"/>
<path class="st0" d="M450.4,105c0,18.6-15.2,33.9-33.9,33.9c-18.7,0-33.9-15.3-33.9-33.9V68.7c0-10.5,8.6-19,19-19h29.9
	c10.5,0,19,8.5,19,19L450.4,105L450.4,105z"/>
<path class="st0" d="M129.4,105c0,18.6-15.3,33.9-33.9,33.9S61.5,123.7,61.5,105c0-12.1,0-24.3,0-36.3c0-10.5,8.6-19,19-19h43.8
	c3.5,0,5.1,2,5.1,5C129.4,71.5,129.4,88.3,129.4,105z"/>
<path class="st0" d="M382.6,68.7V91l23.2-11.4c3.1-1.5,6.2-1.7,9.3-0.6l35.3,12V68.7c0-10.5-8.5-19-19-19h-29.9
	C391.2,49.7,382.6,58.2,382.6,68.7L382.6,68.7z"/>
<path class="st0" d="M61.5,68.7v10.9h67.8V54.8c0-3-1.6-5-5.1-5H80.5C70,49.7,61.5,58.2,61.5,68.7z"/>
<path class="st0" d="M289.9,105c0,18.6-15.3,33.9-33.9,33.9s-33.9-15.3-33.9-33.9V68.7c0-10.5,8.5-19,19-19h29.9
	c10.4,0,19,8.5,19,19L289.9,105L289.9,105z"/>
<path class="st0" d="M222.1,68.7v13.2c9.6,3.6,17.5,0.6,22.1-2.1c3.6-2.1,4.1-2.4,7.7,0.6c16.3,14.2,37.9,6.4,37.9,6.4V68.7
	c0-10.5-8.6-19-19-19H241C230.7,49.7,222.1,58.2,222.1,68.7z"/>
<path d="M129.2,127.5c9,0.9,17.3,5,23.4,11.2c7,7.1,11.4,16.7,11.4,27.4v69.2c0,3.7-3,6.7-6.7,6.7c-41.3,0-82.4,0-123.7,0
	c-3.7,0-6.7-3-6.7-6.7v-69.2c0-10.6,4.4-20.3,11.4-27.4c6.2-6.1,14.3-10.2,23.4-11.2c-4.3-6.4-6.8-14.1-6.8-22.5V79.6V68.7
	c0-7.1,2.9-13.5,7.5-18.2S73.4,43,80.5,43h48.9c3.7,0,6.7,3,6.7,6.7v29.9V105C136.1,113.4,133.6,121.1,129.2,127.5L129.2,127.5z
	 M443.7,95.7l-32.9-11.1l-21.5,10.5v9.9c0,7.5,3,14.3,8.1,19.2c4.9,4.9,11.7,8,19.2,8c7.4,0,14.2-3,19.2-8c4.9-4.9,8-11.7,8-19.2
	L443.7,95.7L443.7,95.7z M389.3,80.3l17.7-8.7c1.6-0.9,3.6-1.2,5.5-0.5l31.2,10.6V68.7c0-3.4-1.4-6.4-3.7-8.7
	c-2.2-2.2-5.3-3.7-8.7-3.7h-29.9c-3.4,0-6.4,1.4-8.7,3.7c-2.2,2.2-3.7,5.3-3.7,8.7v11.5H389.3z M68.3,72.9h54.4V56.5H80.5
	c-3.3,0-6.4,1.4-8.7,3.7c-2.2,2.2-3.6,5.3-3.6,8.7V72.9z M122.7,86.3H68.3V105c0,7.5,3,14.3,8,19.2c4.9,4.9,11.7,8,19.2,8
	c7.4,0,14.2-3,19.2-8c4.9-4.9,8-11.7,8-19.2V86.3L122.7,86.3z M283.2,95.2c-9,1.3-23.5,0.9-35.6-9.6c-4.3,2.4-10.8,5.1-18.8,4.6V105
	c0,7.5,3,14.3,8,19.2s11.7,8,19.2,8c7.5,0,14.3-3,19.2-8s8-11.7,8-19.2V95.2z M228.8,76.7c5.5,0.7,11-1.3,15.2-4.8
	c2.8-2.4,7.1-2.1,9.4,0.7c9.6,11,22.9,10.4,29.8,9.1v-13c0-3.4-1.3-6.4-3.6-8.7c-2.2-2.2-5.3-3.7-8.7-3.7h-29.9
	c-3.4,0-6.4,1.4-8.7,3.7s-3.6,5.3-3.6,8.7L228.8,76.7L228.8,76.7z M76.1,140.7H65.6c-6.9,0-13.2,2.9-17.8,7.4s-7.4,10.9-7.4,17.8
	v62.5h12.5v-50.1c0-3.7,3-6.7,6.7-6.7c3.7,0,6.7,3,6.7,6.7v50.1h58.3v-50.1c0-3.7,3-6.7,6.7-6.7c3.7,0,6.7,3,6.7,6.7v50.1h12.4V166
	c0-7-2.9-13.2-7.4-17.8c-4.6-4.6-10.9-7.4-17.9-7.4h-10.5c-5.7,3.1-12.3,4.8-19.2,4.8C88.5,145.6,81.9,143.9,76.1,140.7L76.1,140.7z
	 M457.2,105c0,8.3-2.5,16-6.9,22.5c9,0.9,17.3,5,23.4,11.2c7.1,7.1,11.4,16.7,11.4,27.4v69.2c0,3.7-3,6.7-6.7,6.7
	c-41.3,0-82.4,0-123.7,0c-3.7,0-6.7-3-6.7-6.7v-69.2c0-10.6,4.3-20.3,11.4-27.4c6.2-6.1,14.3-10.2,23.4-11.2
	c-4.3-6.4-6.9-14.1-6.9-22.5V68.7c0-7.1,2.9-13.5,7.5-18.2c4.7-4.7,11.1-7.5,18.2-7.5h29.9c7.1,0,13.5,2.9,18.2,7.5
	c4.7,4.7,7.5,11.1,7.5,18.2L457.2,105L457.2,105z M435.8,140.7c-5.7,3.1-12.3,4.8-19.2,4.8s-13.5-1.8-19.3-4.9h-10.6
	c-7,0-13.2,2.9-17.8,7.4c-4.6,4.6-7.4,10.9-7.4,17.8v62.5h12.5v-50.1c0-3.7,3-6.7,6.7-6.7c3.7,0,6.7,3,6.7,6.7v50.1h58.3v-50.1
	c0-3.7,3-6.7,6.7-6.7s6.7,3,6.7,6.7v50.1h12.5v-62.5c0-7-2.9-13.2-7.4-17.8c-4.6-4.6-10.9-7.4-17.8-7.4L435.8,140.7L435.8,140.7z
	 M296.6,105c0,8.3-2.5,16-6.8,22.5c9,0.9,17.3,5,23.4,11.2c7,7.1,11.4,16.7,11.4,27.4v69.2c0,3.7-3,6.7-6.7,6.7
	c-41.2,0-82.4,0-123.7,0c-3.7,0-6.7-3-6.7-6.7v-69.2c0-10.6,4.4-20.3,11.4-27.4c6.2-6.1,14.3-10.2,23.4-11.2
	c-4.3-6.4-6.9-14.1-6.9-22.5V68.7c0-7.1,2.9-13.5,7.5-18.2S234,43,241.1,43h29.9c7.1,0,13.5,2.9,18.2,7.5c4.7,4.7,7.5,11.1,7.5,18.2
	V105z M275.2,140.7c-5.7,3.1-12.3,4.8-19.2,4.8s-13.5-1.8-19.2-4.8h-10.6c-7,0-13.2,2.9-17.9,7.4c-4.6,4.6-7.4,10.9-7.4,17.8v62.5
	h12.4v-50.1c0-3.7,3-6.7,6.7-6.7c3.7,0,6.7,3,6.7,6.7v50.1h58.3v-50.1c0-3.7,3-6.7,6.7-6.7c3.8,0,6.7,3,6.7,6.7v50.1H311V166
	c0-7-2.9-13.2-7.4-17.8c-4.6-4.6-10.9-7.4-17.8-7.4L275.2,140.7z M395.8,362.1c-3.7,0-6.7-3-6.7-6.7c0-3.7,3-6.7,6.7-6.7h41.6
	c3.7,0,6.7,3,6.7,6.7s-3,6.7-6.7,6.7H395.8z M382.4,337.5c-3.8,0-6.7-3-6.7-6.7s3-6.7,6.7-6.7h68.3c3.7,0,6.7,3,6.7,6.7
	c0,3.7-3,6.7-6.7,6.7H382.4z M235.2,362.1c-3.7,0-6.7-3-6.7-6.7c0-3.7,3-6.7,6.7-6.7h41.6c3.7,0,6.7,3,6.7,6.7s-3,6.7-6.7,6.7H235.2
	z M221.8,337.5c-3.7,0-6.7-3-6.7-6.7s3-6.7,6.7-6.7h68.3c3.7,0,6.7,3,6.7,6.7c0,3.7-3,6.7-6.7,6.7H221.8z M74.6,362.1
	c-3.7,0-6.7-3-6.7-6.7c0-3.7,3-6.7,6.7-6.7h41.6c3.7,0,6.7,3,6.7,6.7s-3,6.7-6.7,6.7H74.6z M61.3,337.5c-3.7,0-6.7-3-6.7-6.7
	s3-6.7,6.7-6.7h68.3c3.7,0,6.7,3,6.7,6.7c0,3.7-3,6.7-6.7,6.7H61.3z M390.4,376.2h52.3c3.7,0,6.7,3,6.7,6.7v52.3
	c0,3.7-3,6.7-6.7,6.7h-52.3c-3.7,0-6.7-3-6.7-6.7v-52.3C383.7,379.2,386.7,376.2,390.4,376.2z M436,389.6H397v38.9H436V389.6z
	 M95.5,372.3c10.1,0,19.3,4.1,26,10.7c6.6,6.6,10.7,15.8,10.7,26c0,10.1-4.1,19.3-10.7,26s-15.8,10.7-26,10.7s-19.3-4.1-26-10.7
	c-6.6-6.6-10.7-15.8-10.7-26c0-10.1,4.1-19.3,10.7-26C76.1,376.5,85.3,372.3,95.5,372.3z M111.9,392.6c-4.2-4.2-10-6.8-16.5-6.8
	c-6.4,0-12.3,2.6-16.5,6.8c-4.2,4.2-6.8,10-6.8,16.5c0,6.4,2.6,12.3,6.8,16.5c4.2,4.2,10,6.8,16.5,6.8c6.4,0,12.3-2.6,16.5-6.8
	c4.2-4.2,6.8-10,6.8-16.5S116.1,396.8,111.9,392.6z M261.8,377.8c10.7,18.6,21.5,37.2,32.2,55.8c1.9,3.2,0.8,7.2-2.4,9.1
	c-1,0.6-2.1,0.9-3.3,0.9h-64.5c-3.7,0-6.7-3-6.7-6.7c0-1.4,0.4-2.7,1.2-3.8c10.6-18.5,21.4-37,32-55.5c1.8-3.2,5.9-4.3,9.1-2.5
	C260.4,375.9,261.3,376.8,261.8,377.8L261.8,377.8z M256,394.4c-6.9,11.9-13.8,23.9-20.7,35.8h41.3
	C269.8,418.3,262.9,406.4,256,394.4L256,394.4z M382.4,272h12.2v-8.5c0-3.7,3-6.7,6.7-6.7h30.4c3.7,0,6.7,3,6.7,6.7v8.5h12.2
	c3.7,0,6.7,3,6.7,6.7v7.1h20.9c3.7,0,6.7,3,6.7,6.7v169.8c0,3.7-3,6.7-6.7,6.7H354.7c-3.7,0-6.7-3-6.7-6.7v-69.7
	c0-3.7,3-6.7,6.7-6.7c3.8,0,6.7,3,6.7,6.7v62.9h110.2V299.2h-14.2v7.1c0,3.7-3,6.7-6.7,6.7h-68.3c-3.8,0-6.7-3-6.7-6.7v-7.1h-14.2
	v63c0,3.7-3,6.7-6.7,6.7c-3.7,0-6.7-3-6.7-6.7v-69.7c0-3.7,3-6.7,6.7-6.7h20.9v-7.1C375.7,275,378.7,272,382.4,272L382.4,272z
	 M401.3,285.4h-12.2v14.1H444c0-4.7,0-9.4,0-14.1h-12.2c-3.7,0-6.7-3-6.7-6.7v-8.5h-17v8.5C408,282.4,405,285.4,401.3,285.4
	L401.3,285.4z M221.8,272H234v-8.5c0-3.7,3-6.7,6.7-6.7h30.4c3.7,0,6.7,3,6.7,6.7v8.5H290c3.7,0,6.7,3,6.7,6.7v7.1h20.9
	c3.7,0,6.7,3,6.7,6.7v169.8c0,3.7-3,6.7-6.7,6.7H194.2c-3.7,0-6.7-3-6.7-6.7v-69.7c0-3.7,3-6.7,6.7-6.7c3.7,0,6.7,3,6.7,6.7v62.9
	h110.2V299.2h-14.2v7.1c0,3.7-3,6.7-6.7,6.7h-68.3c-3.7,0-6.7-3-6.7-6.7v-7.1H201v63c0,3.7-3,6.7-6.7,6.7c-3.7,0-6.7-3-6.7-6.7
	v-69.7c0-3.7,3-6.7,6.7-6.7h20.9v-7.1C215.2,275,218.1,272,221.8,272L221.8,272z M240.8,285.4h-12.2v14.1h54.9v-14.1h-12.3
	c-3.8,0-6.7-3-6.7-6.7v-8.5h-17v8.5C247.5,282.4,244.5,285.4,240.8,285.4L240.8,285.4z M61.3,272h12.2v-8.5c0-3.7,3-6.7,6.7-6.7
	h30.4c3.7,0,6.7,3,6.7,6.7v8.5h12.2c3.7,0,6.7,3,6.7,6.7v7.1h20.9c3.7,0,6.7,3,6.7,6.7v169.8c0,3.7-3,6.7-6.7,6.7H33.6
	c-3.7,0-6.7-3-6.7-6.7v-69.7c0-3.7,3-6.7,6.7-6.7s6.7,3,6.7,6.7v62.9h110.2V299.2h-14.2v7.1c0,3.7-3,6.7-6.7,6.7H61.3
	c-3.7,0-6.7-3-6.7-6.7v-7.1H40.3v63c0,3.7-3,6.7-6.7,6.7c-3.7,0-6.7-3-6.7-6.7v-69.7c0-3.7,3-6.7,6.7-6.7h20.9v-7.1
	C54.6,275,57.6,272,61.3,272L61.3,272z M80.2,285.4H68v14.1h54.9c0-4.7,0-9.4,0-14.1h-12.2c-3.7,0-6.7-3-6.7-6.7v-8.5H87v8.5
	C87,282.4,83.9,285.4,80.2,285.4z"/>
</svg>
