<?xml version="1.0" encoding="utf-8"?>
<!-- Generator: Adobe Illustrator 24.0.1, SVG Export Plug-In . SVG Version: 6.00 Build 0)  -->
<svg version="1.1" id="Layer_1" xmlns="http://www.w3.org/2000/svg" xmlns:xlink="http://www.w3.org/1999/xlink" x="0px" y="0px"
	 viewBox="0 0 100 100" style="enable-background:new 0 0 100 100;" xml:space="preserve">
<path d="M27.3,67.2c-2.4,0-4.8,0-7.3,0c-4.1,0-5.1-1.2-4-5.2c0.1-0.5,0.3-1.1,0.5-1.6c2.7-9.6,3.5-10.6,12.4-14.1
	c-1-2.6-2.2-5.1-2.8-7.8c-2.2-9.9,4.7-16.6,14.6-14.2c0.6,0.2,1.6-0.1,2.1-0.6c5.3-4.9,10.9-6.1,16.4-3.3c5.6,2.8,8.1,8.2,7.1,15.4
	c-0.6,4.8-2.5,9-6.1,12.3C55.7,52.2,50,52.3,45.8,48c-5.8-5.8-7.2-12.9-5.4-20.9c-2.5-1.7-5.2-1.4-7.8-0.1c-3.1,1.6-4.7,4.4-4.6,7.8
	c0.1,4.6,1.5,8.8,5.5,11.8c0.5,0.4,0.7,1.2,1,1.8c-0.6,0.2-1.1,0.6-1.7,0.5c-5-0.8-10.6,2.1-12.5,6.8c-1.1,2.8-1.8,5.7-2.7,8.8
	c3.7,0,7.1,0,10.7,0c0.4-1.2,0.8-2.5,1.2-3.7c1.4-4,4-6.9,7.9-8.7c2.6-1.2,4.7-1.4,7.1,0.8c3.8,3.5,13.1,3.1,17.1-0.3
	c2.6-2.2,8.7-1.1,10.3,1.8c0.2,0.3,0.2,1.1,0,1.2c-0.4,0.3-1.1,0.5-1.5,0.3c-0.8-0.3-1.4-0.9-2.1-1.3c-2-1.2-3.7-1.6-5.9,0.3
	C58,58.9,47.3,58.6,43,54.7c-1.5-1.3-2.7-1.3-4.3-0.6c-3.3,1.5-5.7,3.9-6.8,7.4c-0.9,2.6-1.5,5.2-2.3,7.8c-0.7,2.1,0,2.6,2.1,2.6
	c7.1-0.1,14.3,0,21.4,0c0.7,0,1.5-0.1,2.2,0.1c0.4,0.1,0.8,0.6,1.2,1c-0.4,0.4-0.8,1.1-1.2,1.2c-1,0.2-2.1,0.1-3.1,0.1
	c-6.3,0-12.6,0-18.8,0C26.9,74.2,26.5,73.8,27.3,67.2z M57,29.9c-4,4.3-9.4,3.9-14.7,3.6c-0.2,4.8,2.1,10.1,5.4,13
	c3.4,3,7.3,3.1,10.7,0.1c4.4-4,5.8-9.1,5.7-14.6C61.6,31.3,59.5,30.6,57,29.9z M42.2,30.9c5.9,1,11.1,0.7,14.5-4.4
	c2.3,1.1,4.3,2.1,6.8,3.3c-1.6-5.7-6.1-8.8-11.1-8.5C47.3,21.6,43.3,25.2,42.2,30.9z"/>
<path d="M77.4,74.2c0,3,0.1,5.6-0.1,8.2c0,0.6-0.8,1.2-1.2,1.9c-0.4-0.6-1-1.3-1.1-1.9c-0.1-2.6-0.1-5.2-0.1-8.1
	c-2.5,0-4.7,0.1-6.9,0c-1-0.1-2.1-0.7-3.1-1c1.1-0.4,2.1-1.1,3.2-1.2c2.1-0.2,4.3-0.1,6.8-0.1c0-2.7-0.1-5.2,0-7.7
	c0-0.8,0.7-1.5,1-2.3c0.4,0.8,1.2,1.6,1.2,2.4c0.2,2.4,0.1,4.8,0.1,7.6c2.8,0,5.4-0.1,8,0c0.7,0,1.3,0.7,2,1
	c-0.7,0.4-1.4,1.2-2.1,1.2C82.8,74.3,80.3,74.2,77.4,74.2z"/>
</svg>
