<?xml version="1.0" encoding="utf-8"?>
<!-- Generator: Adobe Illustrator 24.0.1, SVG Export Plug-In . SVG Version: 6.00 Build 0)  -->
<svg version="1.1" id="Capa_1" xmlns="http://www.w3.org/2000/svg" xmlns:xlink="http://www.w3.org/1999/xlink" x="0px" y="0px"
	 viewBox="0 0 512 512" style="enable-background:new 0 0 512 512;" xml:space="preserve">
<style type="text/css">
	.st0{fill:none;}
	.st1{fill:#0182FC;}
	.st2{fill:#FFC344;}
</style>
<path class="st0" d="M236,173.5L128.3,210v108.8L236,355.4c3.6,1.2,7.3-1.4,7.3-5.2V178.8C243.3,175,239.6,172.3,236,173.5
	L236,173.5z"/>
<path class="st0" d="M62,318.9c-0.3,0-0.7,0-1,0v84.4c0,10.9,8.8,19.7,19.7,19.7c0.2,0,0.4,0,0.6,0c10.9,0,19.7-8.8,19.7-19.7V319
	H62V318.9z"/>
<path class="st0" d="M258.2,232.5h-14.9v63.9h14.9c7.5,0,13.6-6.1,13.6-13.6V246C271.8,238.6,265.7,232.5,258.2,232.5z"/>
<path class="st0" d="M62,210.1c-30,0-54.4,24.4-54.4,54.4S32,318.9,62,318.9h66.4V210.1C125.5,210.1,64.6,210.1,62,210.1z"/>
<path class="st1" d="M62,318.9c-0.3,0-0.7,0-1,0l0,0H62z"/>
<path class="st0" d="M425.7,177.2c-36.6,0-67.4,25-76.2,58.8l-28,14.7c-4.3,2.3-4.3,8.4,0,10.7l28,14.7
	c8.9,33.8,39.6,58.8,76.2,58.8c43.5,0,78.8-35.3,78.8-78.8C504.5,212.5,469.2,177.2,425.7,177.2L425.7,177.2z"/>
<path class="st0" d="M403.7,32.6c-30.8-30.8-80.6-30.8-111.4,0c-25.9,25.9-30,65.3-12.3,95.4l-9.4,30.1c-1.5,4.6,2.9,9,7.6,7.6
	l30.1-9.4c30.2,17.7,69.6,13.5,95.4-12.3C434.4,113.3,434.4,63.4,403.7,32.6L403.7,32.6z"/>
<path class="st0" d="M406.5,368c-25.9-25.9-65.3-30-95.4-12.3l-30.1-9.4c-4.6-1.5-9,2.9-7.6,7.6l9.4,30.1
	c-17.7,30.2-13.5,69.6,12.3,95.4c30.8,30.8,80.6,30.8,111.4,0S437.3,398.7,406.5,368L406.5,368z"/>
<path class="st2" d="M0,0"/>
<g>
	<path d="M53.4,403.2c0,24.9,30.3,36,47.1,19.3c5.2-5.1,8-12,8-19.3v-76.8h18.6l56.8,19.3c3.9,1.3,8.2-0.8,9.6-4.7
		c1.3-3.9-0.8-8.2-4.7-9.6l-52.9-17.9v-98l99.9-33.9v165.8l-13.7-4.6c-3.9-1.3-8.2,0.8-9.6,4.7c-1.3,3.9,0.8,8.2,4.7,9.6l16.3,5.5
		c8.6,2.9,17.3-3.5,17.3-12.4V304h7.3c11.7,0,21.1-9.5,21.1-21.1v-36.8c0-11.7-9.5-21.1-21.1-21.1h-7.3v-46.2
		c0-8.9-8.7-15.3-17.3-12.4L127,202.5H62c-34.2,0-62,27.8-62,62c0,31.3,23.3,57.2,53.4,61.4V403.2z M258.2,240.1c3.3,0,6,2.7,6,6
		v36.8c0,3.3-2.7,6-6,6h-7.3v-48.8L258.2,240.1L258.2,240.1z M93.4,403.2c0,6.1-4.7,12.2-12.7,12.1c-6.7,0-12.1-5.5-12.1-12.1v-76.8
		h24.9L93.4,403.2z M15.1,264.5c0-25.8,21-46.9,46.9-46.9h58.8v93.7c-0.5,0-58.7,0-59.2,0c-0.3,0-0.2,0-0.5,0
		C35.6,310.9,15.1,290,15.1,264.5z"/>
	<path d="M425.7,169.7c-38.1,0-71.6,25-82.6,61.1L318,244c-9.7,5.1-9.7,19,0,24.1l25.1,13.2c11,36.2,44.5,61.1,82.6,61.1
		c47.6,0,86.3-38.7,86.3-86.3S473.3,169.7,425.7,169.7z M425.7,327.3c-32.4,0-60.7-21.9-68.9-53.1c-0.5-2.1-1.9-3.8-3.8-4.8
		L327.6,256l25.4-13.3c1.9-1,3.3-2.7,3.8-4.8c8.2-31.3,36.5-53.1,68.9-53.1c39.3,0,71.2,32,71.2,71.2S465,327.3,425.7,327.3
		L425.7,327.3z"/>
	<path d="M409,149.4c16.3-16.3,25.3-38,25.3-61c0-2.1-0.1-4.3-0.2-6.4c-0.3-4.2-3.9-7.3-8.1-7s-7.3,3.9-7,8.1
		c0.1,1.8,0.2,3.6,0.2,5.3c0,19-7.4,36.9-20.9,50.4s-31.3,20.9-50.4,20.9c-12.7,0-25.1-3.4-35.9-9.7c-1.8-1.1-4-1.3-6.1-0.7
		l-27.4,8.6l8.6-27.4c0.6-2,0.4-4.2-0.7-6.1c-6.4-10.9-9.7-23.3-9.7-35.9c0-19,7.4-36.9,20.9-50.4c13.4-13.6,31.3-21,50.4-21
		c19,0,36.9,7.4,50.4,20.9c4.5,4.5,8.3,9.5,11.4,14.9c2.1,3.6,6.7,4.9,10.3,2.8c3.6-2.1,4.9-6.7,2.8-10.3c-3.8-6.6-8.4-12.6-13.8-18
		C392.7,11,371,2,348,2c-23.1,0-44.7,9-61,25.3s-25.3,38-25.3,61c0,14.2,3.5,28.1,10.1,40.6l-8.4,27c-3.3,10.4,6.5,20.3,17,17
		l27-8.4c12.4,6.6,26.4,10.1,40.6,10.1C371,174.7,392.7,165.7,409,149.4L409,149.4z"/>
	<path d="M319.5,127.3l66.9-66.9c2.9-2.9,2.9-7.7,0-10.7c-2.9-2.9-7.7-2.9-10.7,0l-66.9,66.9c-2.9,2.9-2.9,7.7,0,10.7
		C311.8,130.2,316.6,130.2,319.5,127.3z"/>
	<path d="M343.1,60.7c0-11.7-9.5-21.1-21.1-21.1s-21.1,9.5-21.1,21.1s9.5,21.1,21.1,21.1S343.1,72.4,343.1,60.7z M316,60.7
		c0-3.3,2.7-6,6-6s6,2.7,6,6s-2.7,6-6,6S316,64.1,316,60.7z"/>
	<path d="M374,136.7c11.7,0,21.1-9.5,21.1-21.1s-9.5-21.1-21.1-21.1s-21.1,9.5-21.1,21.1S362.3,136.7,374,136.7z M374,109.5
		c3.3,0,6,2.7,6,6s-2.7,6-6,6s-6-2.7-6-6S370.6,109.5,374,109.5z"/>
	<path d="M310.2,347.5l-27-8.4c-10.4-3.3-20.3,6.6-17,17l8.4,27C244,440.5,285.7,510,350.8,510c47.4,0,86.3-38.3,86.3-86.3
		C437.1,358.9,367.8,316.8,310.2,347.5z M401.2,373.3L401.2,373.3c13.5,13.5,20.9,31.3,20.9,50.4c0,39.6-32.1,71.2-71.2,71.2
		c-54.9,0-89.3-59.7-61.5-107.1c1.1-1.8,1.3-4,0.7-6.1l-8.6-27.4l27.4,8.6c2,0.6,4.2,0.4,6.1-0.7
		C342.8,345.9,378.3,350.4,401.2,373.3z"/>
	<path d="M437.1,249.6c-1.2-0.5-2.4-0.9-3.6-1.4v-23.6c6.2,1.8,10.5,5.2,10.7,5.4c3.2,2.7,7.9,2.2,10.6-0.9c2.7-3.2,2.3-8-0.9-10.6
		c-0.5-0.4-8.6-7.1-20.4-9.3v-7.4c0-4.2-3.4-7.5-7.5-7.5s-7.5,3.4-7.5,7.5v7.6c-1,0.2-1.9,0.4-2.9,0.7c-10.1,3.1-17.3,11-18.7,20.7
		c-1.3,9.1,2.6,17.8,10.3,22.8c0.3,0.2,0.7,0.4,1,0.6c0.3,0.1,4.4,1.9,10.3,4.4v28.7c-5.1-1.5-9.8-4.3-13.2-8.1
		c-2.8-3.1-7.6-3.3-10.7-0.5s-3.3,7.6-0.5,10.7c6.2,6.8,14.9,11.6,24.4,13.4v7.7c0,4.2,3.4,7.5,7.5,7.5c4.2,0,7.5-3.4,7.5-7.5v-7.3
		c12.8-2.2,23.3-11.4,25.3-23.1C460.7,269.8,455.9,256.5,437.1,249.6z M414.9,240.6c-2.4-1.8-3.6-4.6-3.1-7.7
		c0.5-3.5,2.9-6.3,6.6-7.9v17.1C416.8,241.4,415.6,240.9,414.9,240.6z M444,277.4c-0.7,4.2-4.7,8.5-10.5,10.3v-23.3
		C441.1,267.6,444.9,272.2,444,277.4z"/>
	<path d="M305.4,425.7l4.9,36.8c0.7,5.5,5.4,9.6,10.9,9.6h59.3c5.5,0,10.2-4.1,10.9-9.6l4.9-36.8c0.4-3.1-0.5-6.3-2.6-8.7
		c-2.1-2.4-5.1-3.8-8.3-3.8h-6.2v-9.6c0-15.5-12.6-28.2-28.2-28.2s-28.2,12.6-28.2,28.2v9.6h-6.4
		C309.6,413.3,304.5,419.1,305.4,425.7L305.4,425.7z M337.8,403.6c0-7.2,5.9-13.1,13.1-13.1s13.1,5.9,13.1,13.1v9.6h-26.2V403.6z
		 M380.7,428.4l-3.8,28.7h-52.1l-3.8-28.7H380.7z"/>
</g>
</svg>
