<?xml version="1.0" encoding="utf-8"?>
<!-- Generator: Adobe Illustrator 24.0.1, SVG Export Plug-In . SVG Version: 6.00 Build 0)  -->
<svg version="1.1" id="Layer_1" xmlns="http://www.w3.org/2000/svg" xmlns:xlink="http://www.w3.org/1999/xlink" x="0px" y="0px"
	 viewBox="0 0 100 100" style="enable-background:new 0 0 100 100;" xml:space="preserve">
<path d="M37.1,70.3c0.4,0.7,0.9,1.3,1.3,1.9c3.6,5.3,7.3,10.6,10.9,16.1c1.9,2.7,1.9,5.7,0.1,8.5c-1.7,2.7-4.3,3.9-7.6,3.4
	c-2.6-0.3-4.5-1.9-5.9-3.9c-4.2-6-8.2-12.1-12.3-18.1c-0.3-0.6-0.7-1-1.1-1.6c-2.7,1.4-5.6,2.3-8.8,1.7c-5-0.9-9-4.6-10.3-9.8
	C2.3,63.7,4,58.8,8,55.8c1.1-0.9,2.3-1.9,3.6-2.4c4-2.2,6.5-5.5,8.3-9.5c3.7-8,7.8-15.9,11.6-23.8c2-4.2,5.3-5.9,9.9-4.6
	c2.6,0.7,5.3,1.7,7.5,3.3c12.1,8.6,20,20.2,23,34.9c0.6,2.6,0.3,5.5-0.1,8.2c-0.7,3.9-3.6,5.9-7.5,6.2c-8.3,0.6-16.8,1.3-25.1,2
	C38.7,70,38,70.1,37.1,70.3z M68.7,56.2c-0.3-1.3-0.4-3-0.7-4.7c-2.3-9-7.2-16.7-13.5-23.3c-2.9-3-6.5-5.3-9.9-7.8
	c-1.3-0.9-3.2-1.3-4.7-1.4c-2.6-0.3-4.6,1.1-4.9,3.7c-0.3,2.4-0.3,5,0.1,7.5c2.9,12.3,9.6,22.3,19.5,30c1.9,1.4,4,2.6,6.2,3.4
	c3.9,1.6,6.7-0.1,7.6-4.3C68.6,58.4,68.6,57.5,68.7,56.2z M31,30.5c-0.1,0.1-0.3,0.1-0.4,0.3c-3.2,6.3-6.3,12.8-9.3,19.1
	c-0.3,0.6,0,1.4,0.3,2c3,4.6,6,9,9.2,13.5c0.4,0.6,1.4,1.1,2.2,1c5.2-0.3,10.2-0.7,15.4-1.1c1.9-0.1,3.9-0.4,6-0.6
	C42.3,55.9,34.7,44.7,31,30.5z M18,53.6c-2.7,1.9-5.3,3.6-7.8,5.3c-3.6,2.7-4.5,7.5-2,11.3c2.6,4,7.2,5.6,11.1,3.4
	c3-1.6,5.6-3.7,8.6-5.6C24.7,63.4,21.3,58.7,18,53.6z M25.7,74.4c2.7,4.2,5.5,8,8.2,12.1c2,2.9,3.9,5.7,5.9,8.6
	c1.3,1.9,3.7,2,5.5,0.9c1.7-1.3,2.2-3.6,0.9-5.6c-4.2-6.2-8.3-12.3-12.5-18.7c-0.9-1.1-1.7-1.3-2.7-0.6C29.1,72,27.5,73.2,25.7,74.4
	z"/>
<path d="M91,18.5c-0.6,0.6-1,1.3-1.6,1.7c-4.2,2.7-8.2,5.5-12.3,8.2c-1.1,0.7-2.3,0.9-3-0.3c-0.9-1.1-0.3-2.2,0.9-2.9
	c4.2-2.7,8.2-5.5,12.3-8c0.6-0.4,1.7-0.4,2.4-0.3C90.3,17,90.5,17.9,91,18.5z"/>
<path d="M94.1,44.3c-5.6-1-10.6-1.9-15.6-2.9c-1.1-0.3-1.9-1.1-1.4-2.3c0.3-0.7,1.4-1.4,2-1.4c5.2,0.7,10.2,1.7,15.4,2.7
	c1.3,0.3,1.9,1.1,1.4,2.3C95.6,43.4,94.6,43.9,94.1,44.3z"/>
<path d="M64.3,17.6c0.4-4.6,0.9-8.9,1.3-13.1c0.1-1.3,0.6-2.4,2.2-2.3c1.4,0.1,1.7,1.3,1.6,2.6c-0.4,4.3-0.9,8.5-1.3,12.8
	c-0.1,1.3-0.4,2.7-2.2,2.6C64.1,20,64.1,18.6,64.3,17.6z"/>
<path d="M48.1,33.2c4.3,0.4,8.2,3,9.8,6.9c1.6,3.9,0.6,8.3-2.6,11.3c-0.3,0.3-0.6,0.6-0.9,0.7c-1,0.7-2,0.9-2.9-0.1
	c-0.9-1-0.6-2,0.4-2.9c2-1.6,3-3.7,2.6-6.2c-0.7-4.5-5.3-6.7-9.3-4.7c-0.3,0.1-0.6,0.4-0.9,0.4c-0.9-0.1-2-0.1-2.4-0.7
	c-0.7-0.9-0.4-2,0.7-2.6C44.3,34.5,46.2,34,48.1,33.2z"/>
</svg>
