<?xml version="1.0" encoding="utf-8"?>
<!-- Generator: Adobe Illustrator 25.0.1, SVG Export Plug-In . SVG Version: 6.00 Build 0)  -->
<svg version="1.1" id="Capa_1" xmlns="http://www.w3.org/2000/svg" xmlns:xlink="http://www.w3.org/1999/xlink" x="0px" y="0px"
	 viewBox="0 0 512 512" style="enable-background:new 0 0 512 512;" xml:space="preserve">
<style type="text/css">
	.st0{fill:none;}
</style>
<path class="st0" d="M441.6,226.1h-89.9l-29.5-63.9c-14.8-31.9-7.7-69.7,17.6-94.1l1.1-1.1c32.2-31.1,83-31.1,115.1,0l0,0
	c25.8,25,32.6,63.8,16.7,96L441.6,226.1z"/>
<path class="st0" d="M411.6,468.2h-29.9c-16.5,0-29.9-13.4-29.9-29.9V226.1h89.7v212.2C441.5,454.8,428.1,468.2,411.6,468.2z"/>
<path class="st0" d="M155.1,319.8H72.3v-46.6c0-4.7,3.9-8.6,8.6-8.6h65.6c4.7,0,8.6,3.9,8.6,8.6V319.8z"/>
<path class="st0" d="M153.4,468.2H74c-9.5,0-17.3-7.8-17.3-17.3V328.4c0-4.7,3.9-8.6,8.6-8.6H162c4.7,0,8.6,3.9,8.6,8.6V451
	C170.6,460.5,162.9,468.2,153.4,468.2z"/>
<path class="st0" d="M144.7,264.6H82.6v-75.2c0-13,13.9-21.4,25.4-15.2l27.6,14.8c5.6,3,9.1,8.9,9.1,15.2V264.6z"/>
<path class="st0" d="M269.3,468.2L269.3,468.2c21.2-34.9,32.4-75.1,32.4-115.9V256h-96.6v96.4c0,40.8,11.2,80.9,32.4,115.9l0,0
	H269.3z"/>
<path d="M462,60.8c-17.2-16.6-39.7-25.7-63.6-25.7c-23.9,0-46.4,9.1-63.5,25.7l-1.1,1.1c-27.9,26.9-35.7,68.8-19.4,104l28.8,62.4
	v210.1c0,21.2,17.3,38.6,38.6,38.6h29.9c21.2,0,38.6-17.3,38.6-38.6v-210l30.3-61.4C498,131.1,490.6,88.5,462,60.8z M373.5,234.7
	L373.5,234.7C373.6,234.7,373.6,234.7,373.5,234.7h48.8l0,0l0,0h10.6v54.9h-72.5v-54.9H373.5L373.5,234.7z M411.6,459.6h-29.9
	c-11.7,0-21.3-9.6-21.3-21.3V306.9h38v55.6c0,4.7,3.9,8.6,8.6,8.6c4.7,0,8.6-3.9,8.6-8.6v-55.6h17.3v131.4
	C432.9,450,423.4,459.6,411.6,459.6z M465,159.2l-28.7,58.2h-3.8l7-41.8c0.8-4.7-2.4-9.1-7.1-9.9c-4.7-0.8-9.1,2.4-9.9,7.1
	l-7.4,44.5h-9.7v-43.1c0-4.7-3.9-8.6-8.6-8.6s-8.6,3.9-8.6,8.6v43.1h-7.2l-7.4-44.5c-0.8-4.7-5.3-7.9-9.9-7.1s-7.9,5.3-7.1,9.9
	l7,41.7h-6.1l-27.2-58.9C317,130,323.4,96.1,346,74.2l1.1-1.1c28.9-28,74.1-28,103,0C473.3,95.6,479.2,130.2,465,159.2z"/>
<path d="M163.7,311.3v-38.1c0-7.1-4.2-13.1-10.4-15.8v-53.3c0-9.6-5.3-18.3-13.6-22.8l-27.6-14.8c-8.1-4.3-17.6-4.1-25.5,0.6
	c-7.9,4.7-12.6,13-12.6,22.2v68.1c-6.1,2.7-10.4,8.7-10.4,15.8v38.1c-8.7,0.9-15.5,8.2-15.5,17.2V451c0,14.2,11.6,25.9,25.9,25.9
	h79.4c14.2,0,25.9-11.6,25.9-25.9V328.4C179.3,319.5,172.4,312.1,163.7,311.3z M80.9,273.2h1.7h62.1h1.7v38H80.9V273.2L80.9,273.2z
	 M91.2,189.3c0-4.4,2.9-6.6,4.2-7.4c1.3-0.8,4.6-2.2,8.5-0.2l27.6,14.8c2.8,1.5,4.6,4.4,4.6,7.6V256h-45V189.3z M162,451
	c0,4.7-3.9,8.6-8.6,8.6h-15.5V394c0-4.7-3.9-8.6-8.6-8.6c-4.7,0-8.6,3.9-8.6,8.6v65.6H74c-4.7,0-8.6-3.9-8.6-8.6V328.4H162V451z"/>
<path d="M129.2,352.6c-2.2,0-4.5,0.9-6.1,2.5c-1.6,1.6-2.5,3.8-2.5,6.1c0,2.3,0.9,4.5,2.5,6.1c1.6,1.6,3.8,2.5,6.1,2.5
	c2.2,0,4.5-0.9,6.1-2.5c1.6-1.6,2.5-3.8,2.5-6.1c0-2.3-0.9-4.5-2.5-6.1C133.8,353.5,131.5,352.6,129.2,352.6z"/>
<path d="M301.8,247.3h-39.7v-84.6h14.7c4.7,0,8.6-3.9,8.6-8.6s-3.9-8.6-8.6-8.6h-14.7v-10.4h14.7c4.7,0,8.6-3.9,8.6-8.6
	c0-4.7-3.9-8.6-8.6-8.6h-14.7v-10.4h14.7c4.7,0,8.6-3.9,8.6-8.6c0-4.7-3.9-8.6-8.6-8.6h-14.7V79.9h14.7c4.7,0,8.6-3.9,8.6-8.6
	c0-4.7-3.9-8.6-8.6-8.6h-14.7V52.3h14.7c4.7,0,8.6-3.9,8.6-8.6s-3.9-8.6-8.6-8.6h-46.6c-4.7,0-8.6,3.9-8.6,8.6s3.9,8.6,8.6,8.6h14.7
	v10.4h-14.7c-4.7,0-8.6,3.9-8.6,8.6c0,4.7,3.9,8.6,8.6,8.6h14.7v10.4h-14.7c-4.7,0-8.6,3.9-8.6,8.6c0,4.7,3.9,8.6,8.6,8.6h14.7v10.4
	h-14.7c-4.7,0-8.6,3.9-8.6,8.6c0,4.7,3.9,8.6,8.6,8.6h14.7v10.4h-14.7c-4.7,0-8.6,3.9-8.6,8.6s3.9,8.6,8.6,8.6h14.7v84.6h-39.7
	c-4.7,0-8.6,3.9-8.6,8.6v96.4c0,42.5,11.6,84,33.7,120.4c1.6,2.6,4.4,4.1,7.4,4.1h31.8c3,0,5.8-1.6,7.4-4.1
	c22-36.3,33.7-77.9,33.7-120.4V256C310.4,251.2,306.5,247.3,301.8,247.3z M293.2,352.3c0,37.7-9.9,74.6-28.6,107.3h-22
	c-18.8-32.6-28.6-69.6-28.6-107.3v-49.8h52c4.7,0,8.6-3.9,8.6-8.6c0-4.7-3.9-8.6-8.6-8.6h-52.1v-20.7h79.4V352.3L293.2,352.3z"/>
<path d="M407,384c-2.2,0-4.5,0.9-6.1,2.5c-1.6,1.6-2.5,3.8-2.5,6.1c0,2.2,0.9,4.5,2.5,6.1c1.6,1.6,3.8,2.5,6.1,2.5s4.5-0.9,6.1-2.5
	c1.6-1.6,2.5-3.8,2.5-6.1c0-2.2-0.9-4.5-2.5-6.1C411.6,385,409.3,384,407,384z"/>
</svg>
