<?xml version="1.0" encoding="utf-8"?>
<!-- Generator: Adobe Illustrator 24.0.1, SVG Export Plug-In . SVG Version: 6.00 Build 0)  -->
<svg version="1.1" id="Layer_1" xmlns="http://www.w3.org/2000/svg" xmlns:xlink="http://www.w3.org/1999/xlink" x="0px" y="0px"
	 viewBox="0 0 100 100" style="enable-background:new 0 0 100 100;" xml:space="preserve">
<path d="M86.9,29.6c0,4-0.1,8,0,12c0,2.1-0.8,2.9-2.8,2.1c-3.5-1.5-6.8-3.2-10.3-4.7c-1.2-0.5-2.4-1.3-3.6-1.2
	c-7.6,0.9-15.3,2-22.9,3.1c-5.4,0.8-7.2,3.7-6.5,9.2c0.5,3.9,0.3,7.8,0.4,11.7c0.1,4.6,0.2,9.2-0.1,13.7c-0.1,1.5-1.1,3-1.7,4.6
	c-0.3,0.8-0.6,1.5-0.8,2.3c-0.4,2-1.7,3.3-3.7,3.3c-2,0-3.2-1.3-3.7-3.3c-0.2-0.9-0.8-1.7-1.2-2.6c-0.5-1.2-1.3-2.4-1.2-3.6
	c0.1-9.3,0.4-18.6,0.7-28c0.1-3.6-2.6-7.1-6.1-6.7c-4,0.5-5.9-2-7.9-4.5c-3.3-4.2-2.2-12.5,1.2-16.4c2.2-2.5,4.5-2.9,7.4-3
	c14-0.5,27.8,0.8,41.5,3.5c3.4,0.6,6.5,0.6,9.6-1.9c2.5-2,6-2.7,9.1-3.8c1.8-0.7,2.4,0.2,2.4,2C86.8,21.4,86.8,25.5,86.9,29.6z
	 M66.7,23.9C51.8,20.3,37,19.6,22.1,20c-1.7,0.1-2.3,0.7-2.3,2.4c0.1,4.7,0.1,9.3,0,14c-0.1,2.2,0.9,2.7,2.9,2.7
	c6.3-0.1,12.6,0.4,18.8-0.2c8.4-0.7,16.7-2.1,25.1-3.2C66.7,31.4,66.7,27.6,66.7,23.9z M30.5,41.6c0.5,2.6,1.4,5,1.3,7.3
	c0,9.1-0.4,18.2-0.5,27.4c0,0.7,1.2,1.7,2,2c0.9,0.3,2.1,0,3.1,0.1c1.9,0.1,2.5-0.8,2.4-2.6c-0.1-7.6,0.2-15.2-0.1-22.9
	c-0.2-3.9-1.3-7.7,1.8-11.4C36.7,41.6,33.5,41.6,30.5,41.6z M84.4,41.8c0-8.4,0-16.1,0-24.5c-3.2,1.5-6,2.8-9.4,4.4
	c3.8,2.1,5.5,4.6,5.5,8.1c0,3.4-2.2,5.6-5.3,7.9C78.4,39.1,81.2,40.3,84.4,41.8z M69.3,35.2c3.4,0.3,6.3,0.2,8.1-2.8
	c1.2-2.1,1.1-4.2-0.3-6.1c-1.9-2.7-4.7-2.6-7.8-2.4C69.3,27.7,69.3,31.3,69.3,35.2z M16.6,34.1c0.2,0,0.5,0,0.7,0c0-3.1,0-6.1,0-9.2
	c-0.2,0-0.5,0-0.7,0C16.6,28,16.6,31.1,16.6,34.1z"/>
<path d="M29.9,29.7c0,1.6,0.1,3.2,0,4.8c-0.1,0.6-0.7,1.1-1,1.7c-0.4-0.5-1.2-1-1.2-1.5c-0.1-3.4-0.1-6.8,0-10.2
	c0-0.5,0.8-1,1.2-1.6c0.4,0.6,1,1.1,1.1,1.7C30,26.2,29.9,27.9,29.9,29.7z"/>
<path d="M35,57.3c-0.9-0.7-1.6-1.3-2.3-1.9c0.8-0.4,1.5-1,2.3-1c0.8,0,1.6,0.7,2.4,1.2C36.7,56,36,56.5,35,57.3z"/>
<path d="M34.9,58.8c1.1,0.7,1.8,1.1,2.5,1.6c-0.8,0.4-1.6,1.2-2.4,1.2c-0.7,0.1-1.5-0.7-2.3-1C33.4,60.1,34.1,59.5,34.9,58.8z"/>
</svg>
