<?xml version="1.0" encoding="utf-8"?>
<!-- Generator: Adobe Illustrator 25.0.1, SVG Export Plug-In . SVG Version: 6.00 Build 0)  -->
<svg version="1.1" id="Layer_1" xmlns="http://www.w3.org/2000/svg" xmlns:xlink="http://www.w3.org/1999/xlink" x="0px" y="0px"
	 viewBox="0 0 511.9 511.9" style="enable-background:new 0 0 511.9 511.9;" xml:space="preserve">
<style type="text/css">
	.st0{fill:none;}
</style>
<path class="st0" d="M36.7,45.2h162.4c9,0,16.2,7.2,16.2,16.2v227.4H20.5V61.4C20.5,52.4,27.7,45.2,36.7,45.2z"/>
<path class="st0" d="M426.5,118.2c0,31.4-25.4,56.8-56.8,56.8s-56.8-25.4-56.8-56.8s25.4-56.8,56.8-56.8S426.5,86.8,426.5,118.2z"/>
<g>
	<path class="st0" d="M385.9,378.1c0,31.4-25.4,56.8-56.8,56.8s-56.8-25.4-56.8-56.8s25.4-56.8,56.8-56.8S385.9,346.7,385.9,378.1z"
		/>
	<path class="st0" d="M166.6,345.6c40.4,0,73.1-32.7,73.1-73.1h-56.8c-9,0-16.2,7.2-16.2,16.2V345.6z"/>
	<path class="st0" d="M166.6,410.6v56.8c0,9,7.2,16.2,16.2,16.2h56.8C239.7,443.2,206.9,410.6,166.6,410.6z"/>
	<path class="st0" d="M418.4,272.5c0,40.4,32.7,73.1,73.1,73.1v-56.8c0-9-7.2-16.2-16.2-16.2L418.4,272.5L418.4,272.5z"/>
	<path class="st0" d="M491.4,410.6c-40.4,0-73.1,32.7-73.1,73.1h56.8c9,0,16.2-7.2,16.2-16.2L491.4,410.6L491.4,410.6z"/>
</g>
<path d="M28.6,61.4c0-4.4,3.7-8.1,8.1-8.1h162.4c4.4,0,8.1,3.7,8.1,8.1v186.8h16.2V61.4c0-13.4-10.9-24.4-24.4-24.4H36.7
	c-13.5,0-24.4,10.8-24.4,24.4v292.3c0,13.4,10.9,24.4,24.4,24.4h105.6v-16.2H36.7c-4.4,0-8.1-3.7-8.1-8.1v-56.8h113.7v-16.2H28.6
	V61.4z"/>
<path d="M134.1,329.4c0,9-7.2,16.2-16.2,16.2s-16.2-7.2-16.2-16.2c0-9,7.2-16.2,16.2-16.2S134.1,320.4,134.1,329.4z"/>
<path d="M52.9,321.2h24.4v16.2H52.9V321.2z"/>
<path d="M101.7,69.5h32.5v16.2h-32.5V69.5z"/>
<path d="M361.5,182.6v24.9c0,4.4,3.7,8.1,8.1,8.1l0,0c4.4,0,8.1-3.7,8.1-8.1v-24.9c33.5-4.3,58.2-33.4,56.7-67.1
	s-28.4-60.8-62.2-62.2c-33.7-1.5-62.9,23.3-67.1,56.7h-24.8c-4.5,0-8.2,3.7-8.2,8.2l0,0c0,4.4,3.6,8,8,8h25
	C308.9,155.7,332.1,178.8,361.5,182.6z M367.1,69.6c28.9-1.5,52.7,22.3,51.2,51.2c-1.3,24.7-21.4,44.9-46.1,46.1
	c-28.9,1.5-52.7-22.3-51.2-51.2C322.3,91,342.4,70.9,367.1,69.6z"/>
<path d="M361.5,142.6h16.2v-16.2H394v-16.2h-16.2V93.9h-16.2v16.2h-16.2v16.2h16.2V142.6z"/>
<path d="M329,313.1c-35.9,0-65,29.1-65,65s29.1,65,65,65s65-29.1,65-65C393.9,342.2,364.9,313.1,329,313.1z M329,426.8
	c-26.9,0-48.7-21.8-48.7-48.7s21.8-48.7,48.7-48.7s48.7,21.8,48.7,48.7C377.7,405,355.9,426.7,329,426.8z"/>
<path d="M475.2,264.4H182.9c-13.4,0-24.4,10.9-24.4,24.4v178.6c0,13.4,10.9,24.4,24.4,24.4h292.3c13.4,0,24.4-10.9,24.4-24.4V288.8
	C499.5,275.2,488.6,264.4,475.2,264.4z M475.2,280.6c4.4,0,8.1,3.7,8.1,8.1v48.1c-29.4-3.8-52.6-26.9-56.4-56.4L475.2,280.6
	L475.2,280.6z M174.8,288.8c0-4.4,3.7-8.1,8.1-8.1h48.2c-3.8,29.4-26.9,52.6-56.4,56.4L174.8,288.8L174.8,288.8z M182.9,475.5
	c-4.4,0-8.1-3.7-8.1-8.1v-48.2c29.4,3.8,52.6,26.9,56.4,56.4H182.9z M247.3,475.5c-3.9-38.4-34.3-68.7-72.7-72.7v-49.6
	c38.4-3.9,68.7-34.3,72.7-72.7h163.3c3.9,38.4,34.3,68.7,72.7,72.7v49.6c-38.4,3.9-68.7,34.3-72.7,72.7L247.3,475.5L247.3,475.5z
	 M483.3,467.4c0,4.4-3.7,8.1-8.1,8.1H427c3.8-29.4,26.9-52.6,56.4-56.4V467.4z"/>
<path d="M247.8,110.1L247.8,110.1c4.4,0,8.1,3.7,8.1,8.1l0,0c0,4.4-3.7,8.1-8.1,8.1l0,0c-4.4,0-8.1-3.7-8.1-8.1l0,0
	C239.7,113.8,243.4,110.1,247.8,110.1z"/>
<path d="M369.6,231.9L369.6,231.9c4.4,0,8.1,3.7,8.1,8.1l0,0c0,4.4-3.7,8.1-8.1,8.1l0,0c-4.4,0-8.1-3.7-8.1-8.1l0,0
	C361.5,235.6,365.2,231.9,369.6,231.9z"/>
<path d="M158.5,158.8v-8.1c0-9-7.2-16.2-16.2-16.2H126v-16.2h-16.2v16.2H93.5c-9,0-16.2,7.2-16.2,16.2v24.4c0,9,7.2,16.2,16.2,16.2
	h16.2v24.4H93.5v-8.1H77.3v8.1c0,9,7.2,16.2,16.2,16.2h16.2v16.2H126v-16.2h16.2c9,0,16.2-7.2,16.2-16.2v-24.4
	c0-9-7.2-16.2-16.2-16.2H126v-24.4h16.2v8.1H158.5z M142.3,191.3v24.4H126v-24.4H142.3z M109.8,175.1H93.5v-24.4h16.2V175.1z"/>
</svg>
