<?xml version="1.0" encoding="utf-8"?>
<!-- Generator: Adobe Illustrator 24.0.1, SVG Export Plug-In . SVG Version: 6.00 Build 0)  -->
<svg version="1.1" id="Layer_1" xmlns="http://www.w3.org/2000/svg" xmlns:xlink="http://www.w3.org/1999/xlink" x="0px" y="0px"
	 viewBox="0 0 100 100" style="enable-background:new 0 0 100 100;" xml:space="preserve">
<path d="M38.7,76.5c-6.2,0-12.4,0-18.7,0c-3.4,0-4.9-1.5-4.9-4.9c0-4.9,0-9.8,0-14.6l0-4.2c0-4.1,0.6-4.9,4.8-6l0.7-0.2l0-19.9
	c0-3.5,0-3.5,3.5-3.5l28.5,0l27.1,0c3.2,0,3.2,0,3.2,3.2c0,9.4,0,18.9,0,28.3c0,2.9,0,2.9-3,2.9c-2.3,0-16.7,0-16.7,0h-1l0,5.1
	c0,3,0,5.9,0,8.7c0,3.7-1.4,5-4.9,5C51.2,76.5,44.9,76.5,38.7,76.5z M17.6,61.7c0,0.9,0,1.8,0,2.7c0,2,0.1,3.8-0.1,5.6
	c-0.1,0.9-0.1,2.1,0.7,3c0.8,0.8,2,1,3.1,1h0.1c6.1-0.1,12.3-0.1,17-0.1l17.6,0c0.6,0,1.2-0.1,1.9-0.1c0.3,0,0.6-0.1,0.9-0.1
	l0.9-0.1V60.7H17.6V61.7z M46.7,55.2c-8.5,0-17.5,0-26.5,0.1c-0.8,0-1.3,0.5-1.8,1c-0.1,0.1-0.3,0.3-0.4,0.4l-1.1,0.8l1.2,0.8
	c0.1,0.1,0.3,0.2,0.4,0.3c0.4,0.4,1,0.8,1.7,0.8c6,0,12.1,0,18.1,0c0,0,0,0,0,0c6.3,0,12.6,0,18.9-0.1c0.8,0,1.4-0.6,1.9-1.1
	c0.2-0.2,0.3-0.3,0.5-0.4l0.8-0.6l-1.6-2.1L46.7,55.2z M51.9,28.9c2.5,0,4.9,0.8,6.9,2.3c3.6,2.7,6.1,7.8,3.9,12.3
	c-1.2,2.5-0.8,4.7-0.5,6.6c0.2,1.3,0.4,2.5,0.2,3.8l-0.2,1.2h1.2c0.8,0,1.5,0,2.2,0c0.7,0,1.3,0,1.9,0c1.2,0,2.1,0,2.9-0.1
	c1.1-0.1,2-0.9,2.8-1.7c2.1-2,4.1-4.1,5.7-5.6l0.2-0.2c0.6-0.6,1.4-1.4,1.4-2.4c0.1-2.7,0.1-5.5,0.1-8.1c0-0.9,0-3.5,0-3.5l-0.7-0.2
	c-0.5-0.2-1-0.4-1.5-0.6l2.1-1.8v-5h-8l5.8,6.7c-2.4-1.1-4-2.8-5-5.2c-0.5-1.1-2.1-1.7-3-1.7c-5.9,0-11.8-0.1-17.7-0.1
	c-6.7,0-12.9,0-18.8,0.1c-1.2,0-2.2,0.9-3,1.7l-0.3,0.2c-1.4,1.3-2.7,2.6-4.1,3.9L25,32.9c-0.1,0.1-0.3,0.3-0.5,0.4
	c-0.6,0.5-1.3,1-1.3,1.9c-0.1,2.7-0.1,5.3-0.1,8c0,0.9,0,3.7,0,3.7h18.6l-0.6-2.3C41,44,40.8,43.5,40.7,43
	c-1.1-4.8,0.8-9.6,4.9-12.2C47.5,29.6,49.6,28.9,51.9,28.9z M72.5,54.9h7.9v-5.2l-1.7-1.4L72.5,54.9z M20.4,49.6
	c-0.4,0-1.7,0-2.4,0.9c-0.6,0.8-0.4,1.9-0.1,2.9l0.2,0.7h40.7l1.7-1.9l-0.8-0.7c-0.2-0.2-0.4-0.3-0.6-0.5c-0.6-0.6-1.2-1.3-2.1-1.3
	c-9.3-0.1-18.6-0.1-27.6-0.1L20.4,49.6z M51.8,29.9c-2.9,0-5.7,1.2-7.7,3.4c-2,2.1-2.9,4.9-2.7,7.8c0.3,2.9,0.8,6.1,4.2,6.1
	c0.7,0,1.4-0.1,2.4-0.4l0.6-0.2l0.6-2.8l3.8,2.3l-1.2-2.8c-0.1-0.3-0.2-0.6-0.3-0.9c-0.2-0.8-0.5-1.6-1.1-2.2
	c-1.2-1.1-1.7-2.6-1.4-3.9c0.3-1.3,1.2-2.4,2.6-3c0.1,0,0.2,0,0.2,0.1l0.4,0.3c0.7,0.7,1.5,1.3,1.9,2.1c0.1,0.2,0.1,0.6,0.1,1
	l-3.1-1.2l0.6,2c0.1,0.2,0.1,0.4,0.2,0.7c0.1,0.7,0.3,1.6,1,2c1.9,1.2,2.2,2.7,1.3,5.1l-0.5,1.2l1.3,0.1c0.8,0.1,1.4,0.1,2,0.1
	c3.9,0,4.9-2.2,5.1-5.8c0.2-3-0.8-5.8-2.8-8C57.5,31.1,54.8,29.9,51.8,29.9L51.8,29.9z M23.3,31.1l1.9,1.1l6-6.3h-7.9V31.1z"/>
</svg>
