<?xml version="1.0" encoding="utf-8"?>
<!-- Generator: Adobe Illustrator 25.0.1, SVG Export Plug-In . SVG Version: 6.00 Build 0)  -->
<svg version="1.1" id="Layer_1" xmlns="http://www.w3.org/2000/svg" xmlns:xlink="http://www.w3.org/1999/xlink" x="0px" y="0px"
	 viewBox="0 0 416.7 415" style="enable-background:new 0 0 416.7 415;" xml:space="preserve">
<g>
	<path d="M127.5,43.1c0-4-0.1-7.5,0-11c0.3-9,6.6-15.6,15.2-15.8c8.5-0.2,15.2,6.3,15.7,15.3c0.2,3.7,0,7.4,0,11.3
		c11.1,0,21.7,0,33,0c0-3.5-0.1-6.9,0-10.3c0.5-11.9,10.6-19.2,21.1-15.2c6.2,2.3,9.9,7.8,10,15.3c0.1,3.3,0,6.7,0,10.2
		c11.1,0,21.8,0,33,0c0-3.3,0-6.5,0-9.7c0.1-9.8,6.3-16.7,15.3-16.8c9.1-0.1,15.6,6.9,15.7,16.9c0,3.1,0,6.2,0,9.9
		c2.9,0,5.6,0,8.3,0c4.1,0,8.2-0.1,12.4,0c13.5,0.2,21.9,8.6,22,22.2c0,7.5,0,15,0,21.5c9,3,17.7,5,25.7,8.6
		c30.6,13.7,49.1,47.2,45.1,80.4c-1.7,14.4-6.8,27.3-15.4,38.9c-2,2.7-4.4,4.1-7.7,2.6c-3.5-1.6-4.1-5.5-1.4-9.2
		c5-6.8,8.8-14.2,11.1-22.3c11.4-38.8-14.6-79.7-54.6-85.9c-41.6-6.5-78.6,24.8-79,66.9c-0.4,33.5,25.3,63.2,58.4,67.6
		c17.2,2.3,33-1.1,47.5-10.6c0.6-0.4,1.2-0.9,1.9-1.2c3.1-1.7,6.2-1.1,7.9,1.5c1.7,2.7,1.3,6.1-1.9,7.8c-7.3,4-14.6,8.5-22.4,10.9
		c-44.9,13.9-91.7-14.1-101.1-60.2c-9.5-46.3,24.4-91.1,71.7-94.7c0.9-0.1,1.7-0.2,2.6-0.4c0-8.7,0.3-17.3-0.1-25.8
		c-0.2-4.3-3.5-6.9-8.3-7.1c-7.3-0.3-14.7-0.1-22.5-0.1c0,3.7,0,7.2,0,10.6c-0.1,9.2-6.6,16-15.2,16.2c-9,0.1-15.5-6.5-15.7-15.9
		c-0.1-3.5,0-7,0-10.7c-11.1,0-21.7,0-33,0c0,3.6,0.1,7,0,10.5c-0.4,11.6-10.5,19-20.8,15.3c-6.2-2.2-10.1-7.9-10.3-15.5
		c-0.1-3.4,0-6.7,0-10.3c-11,0-21.7,0-33.1,0c0,4.4,0.2,8.7-0.1,12.9c-0.5,6.7-5.6,12.2-12.1,13.5c-6.4,1.3-13.3-1.5-16.3-7.3
		c-1.4-2.7-1.9-5.9-2.3-8.9c-0.4-3.3-0.1-6.7-0.1-10.2c-8,0-15.6-0.3-23.1,0.1c-4.8,0.3-7.2,3.2-8,8c-0.2,1.5-0.2,3-0.2,4.5
		c0,49.9,0,99.8,0,149.7c0,1.4,0.1,2.8-0.1,4.1c-0.2,3.3-2.4,5.7-5.3,5.6c-3.2,0-5.1-1.8-5.6-4.9c-0.2-1.2-0.2-2.5-0.2-3.7
		c0-50.6,0-101.3,0-151.9c0-14.7,8.4-23,23.1-23C114.2,43.1,120.6,43.1,127.5,43.1z M202.7,48.9L202.7,48.9c0,5.4-0.1,10.8,0.1,16.1
		c0.1,3.6,2.3,5.5,5.1,4.9c2.9-0.7,3.4-3,3.4-5.5c0-10.2,0-20.5,0-30.7c0-3-0.6-5.8-4.2-5.8c-3.7-0.1-4.3,2.8-4.4,5.7
		C202.7,38.6,202.7,43.7,202.7,48.9z M275.2,48.9c0-5.4,0-10.8,0-16.1c0-2.9-1.1-5-4.2-5.1c-3.2,0-4.2,2.1-4.2,5
		c0,10.6,0,21.2,0,31.9c0,2.8,0.8,5.2,4,5.2c3.4,0.1,4.4-2.2,4.4-5.2C275.2,59.4,275.2,54.2,275.2,48.9z M147.2,48.9
		C147.2,48.9,147.2,48.9,147.2,48.9c0-5.4,0-10.7,0-16.1c0-2.9-1.1-5.1-4.2-5c-3.1,0.1-4.2,2.2-4.2,5.1c0,10.6,0,21.2,0,31.9
		c0,2.8,1,5.1,4.1,5.2c3.5,0.1,4.3-2.3,4.3-5.3C147.1,59.4,147.2,54.1,147.2,48.9z"/>
	<path d="M33.6,317.8c-17.3-15.6-21.2-26.8-13.6-40.1c4.2-7.4,10.6-11.8,19.1-13c8.2-1.2,15.7,1.4,23.5,4.9
		c1-11.5,3.8-21.9,13.7-28.6c4.6-3.1,9.8-4.5,15.3-4.2c15.8,1,23.1,9.6,27.3,32.5c2.8-1.1,5.6-2.2,8.4-3.1c4.1-1.4,7.3-0.1,8.3,3.2
		c1,3.1-0.6,6-4.6,7.4c-11.7,3.9-20.5,11.6-27.5,19.8c2.6,3.1,4.9,6.1,7.4,8.8c0.8,0.8,2.1,1.2,3.3,1.5c5.9,1.5,11.8,3,17.8,4.3
		c1.5,0.3,3.6,0.4,4.8-0.4c4.1-2.6,8.2-5.3,11.6-8.7c7.1-7,6.6-16.1-0.5-23.2c-1.5-1.5-2.8-4-2.8-6c0-1.4,2-3.8,3.5-4.1
		c1.8-0.4,4.5,0.2,6,1.4c12.8,10.4,13.5,28.2,1.6,40.3c-2.8,2.8-5.9,5.3-8.3,7.3c4.5,5.1,8.9,10.3,13.5,15.2c0.7,0.8,2.4,1,3.7,1
		c38,0,76,0,114,0c8.9,0,17.8,0,26.6,0c9,0,12.2-3.2,12.2-12.1c0-19,0-38,0-57c0-1.4-0.4-3.1,0.3-4c1.3-1.8,3.1-4.1,4.9-4.2
		c1.8-0.1,4,1.8,5.4,3.4c0.9,1,0.7,3.1,0.7,4.7c0,19.2,0,38.5,0,57.8c0,14.5-8.3,22.8-22.8,22.8c-45.6,0-91.2,0-136.9,0
		c-1.5,0-3,0-4.6,0c-0.8,11.6-5.8,20.2-16.4,24.7c-10.2,4.3-20.1,1.5-29.9-3.1c-0.9,10.7-3.3,20.3-11.9,27.2
		c-4.8,3.8-10.3,5.6-16.4,5.5c-15.4-0.1-23.7-9.7-28-32.5c-1.4,0.5-2.7,1-4,1.6c-9.2,3.8-18.6,5.2-27.8,0.3
		c-14.2-7.5-18.5-25.6-8.9-38.5C25,325.9,29.4,322.2,33.6,317.8z M78.6,297.2c4.1-0.9,8.4-0.8,11.5-2.6c2.4-1.5,3.8-3.7,5.5-5.9
		c1.3-1.7,2.7-3.3,4.2-4.8c1.5-1.5,3.3-2.5,4.7-4c2.3-2.4,3.1-5.6,3-8.9c0-1.2-0.2-2.4-0.3-3.5c-0.3-2.2-0.7-4.5-1.4-6.6
		c-2.6-8.5-7.9-12.9-15.4-12.9c-7.2,0-13.1,4.8-15.1,13.2C72.1,273.7,74.4,285.7,78.6,297.2z M64.9,317.8c0.3,0,1.5-2.6,1.7-2.9
		c0.5-1,0.9-2,1.2-3c0.6-1.9,0.9-3.9,0.9-6c0-2.9-0.7-5.8-1.7-8.5c-0.6-1.6-1.3-3.2-1.8-4.8c-0.5-1.7-0.4-3.5-0.8-5.2
		c-0.4-1.6-1.1-3-2.2-4.2c-2.2-2.4-5.3-3.7-8.3-5c0,0-0.1,0-0.1,0c-1.7-0.7-3.5-1.4-5.3-1.8c-8.8-2-15.5,0.6-19.1,7.2
		c-3.5,6.6-1.9,14.1,4.7,20.2C43.1,311.9,54,315.7,64.9,317.8z M115.9,318.5c-1.4,4.4-2.7,8.5-3.8,12.7c-0.2,0.7,0.1,1.7,0.4,2.5
		c1.5,5.5,3,11,4.7,16.5c0.4,1.3,1,3.2,2.1,3.7c5.5,2.5,11.1,5.3,16.9,6.7c6,1.4,11.3-1.2,14.8-6.6c4.4-6.8,2.9-14.6-4.1-21.2
		C138,324.5,127.1,320.9,115.9,318.5z M76.9,340.8c-3.2-3.9-5.5-8.4-9.2-10.7c-3.7-2.2-9.2-1.4-13.3-3.3c-6.9-3.3-12.1-1.1-17.2,3.3
		c-2.2,1.9-4.3,3.8-6.1,6.1c-4,5.3-4.8,11.1-1.4,17.1c3.8,6.7,11.4,9,20,6.3C61,356.2,69.5,349,76.9,340.8z M103.2,340.9
		c-4.6,1-9.4,1.1-13.1,3.2c-3.8,2.2-6.2,6.8-9.9,9.3c-5.8,4.1-7.5,9.1-6.1,15.7c0.4,1.8,0.2,3.9,1,5.5c1.8,3.6,3.4,7.8,6.2,10.3
		c8,7.2,20.1,3.1,23.9-7.9C109.4,364.8,106.8,352.8,103.2,340.9z M103.7,319.6c0.1-7.3-5.5-13.2-12.7-13.4
		c-7.4-0.2-13.5,5.6-13.7,12.9c-0.2,7.3,5.8,13.4,13.2,13.4C97.8,332.6,103.6,326.9,103.7,319.6z"/>
	<path d="M321.3,222.7c-28.4,0.1-52-20.6-55.5-49.7c-3.4-28.7,15.8-53.3,41-59.8c0.4-0.1,0.7-0.2,1.1-0.3c5.1-1.2,8.3,0.1,9.2,3.7
		c0.8,3.4-1.3,6.1-6.2,7.3c-11.6,2.9-20.5,9.4-27.1,19.2c-18,26.7,0.3,65.1,32.3,68c17.4,1.5,31.5-4.7,41.5-19
		c10-14.4,10.5-29.9,2.9-45.5c-5-10.1-13.2-17.1-23.8-21.1c-1.6-0.6-3.3-1-5-1.7c-3.6-1.4-5.3-4.2-4.3-7.2c1-3.2,4-4.5,7.9-3.5
		c10.3,2.7,19.3,7.7,26.4,15.6c15.7,17.7,19.4,38,10.6,59.9C363.8,209.4,343.4,222.5,321.3,222.7z"/>
	<path d="M206.8,259c-20.2,0-40.5,0-60.7,0c-1.2,0-2.5,0.1-3.7-0.2c-2.7-0.6-4.4-2.3-4.6-5.2s1.3-4.8,4-5.6c1.4-0.4,3-0.4,4.4-0.4
		c40.5,0,80.9,0,121.4,0c1,0,2-0.1,3,0c3.5,0.4,5.6,2.7,5.5,5.9c-0.1,3-2.3,5.1-5.7,5.3c-3.2,0.1-6.5,0-9.7,0
		C242.8,259,224.8,259,206.8,259z"/>
	<path d="M191.5,206.4c15,0,30,0,45,0c1.2,0,2.5-0.1,3.7,0.2c2.8,0.5,4.8,2.5,4.4,5.2c-0.3,2-2.1,3.9-3.7,5.4
		c-0.7,0.7-2.4,0.5-3.6,0.5c-30.6,0-61.2,0-91.9,0c-1.2,0-2.5-0.1-3.7-0.4c-2.8-0.8-4.1-2.8-3.9-5.6c0.2-2.9,1.9-4.6,4.6-5.1
		c1.2-0.2,2.5-0.1,3.7-0.1C161.3,206.4,176.4,206.4,191.5,206.4C191.5,206.4,191.5,206.4,191.5,206.4z"/>
	<path d="M184.8,165c13,0,26,0,39,0c1.4,0,3.1-0.4,4,0.3c1.7,1.3,4.1,3.1,4.2,4.9c0.1,1.8-1.9,4-3.5,5.4c-1,0.9-3.1,0.6-4.7,0.6
		c-25.9,0-51.7,0-77.6,0c-1.5,0-3-0.1-4.4-0.5c-2.8-0.7-4.1-2.8-3.9-5.6c0.2-2.9,1.8-4.6,4.6-5c1.4-0.2,2.7-0.2,4.1-0.2
		C159.3,165,172,165,184.8,165z"/>
	<path d="M170.1,128.8c-8.6,0-17.2,0-25.8,0c-3.1,0-5.7-1.1-6.4-4.5c-0.6-3.1,1.1-5.7,4.2-6.4c1.3-0.3,2.7-0.3,4.1-0.3
		c16.1,0,32.2,0,48.3,0c0.8,0,1.5,0,2.2,0c3.8,0.3,6.2,2.5,6.2,5.7c0,3.2-2.4,5.5-6.3,5.5C187.8,128.8,179,128.8,170.1,128.8
		C170.1,128.8,170.1,128.8,170.1,128.8z"/>
	<path d="M326.8,161.4c3.5,0,6.4-0.1,9.3,0c3.4,0.2,5.6,2.3,5.7,5.3c0.1,2.8-2.1,5.6-5.3,5.8c-5.2,0.2-10.5,0.3-15.7,0
		c-3.5-0.2-5.3-2.6-5.3-6.1c0-10,0-20,0.1-30c0-3.7,2.2-6,5.3-6.1c3.1-0.2,5.8,2.2,5.9,6c0.2,6.7,0.1,13.5,0.1,20.2
		C326.8,158,326.8,159.4,326.8,161.4z"/>
</g>
</svg>
