<?xml version="1.0" encoding="utf-8"?>
<!-- Generator: Adobe Illustrator 25.0.1, SVG Export Plug-In . SVG Version: 6.00 Build 0)  -->
<svg version="1.1" id="Capa_1" xmlns="http://www.w3.org/2000/svg" xmlns:xlink="http://www.w3.org/1999/xlink" x="0px" y="0px"
	 viewBox="0 0 512 512" style="enable-background:new 0 0 512 512;" xml:space="preserve">
<path d="M473.2,253.6c-2.2,12.5-3.2,26.4-7.2,39.4c-14.2,46.5-65.1,60-101.5,27.8c-4.1-3.7-9-7-14.1-8.9c-13.5-4.8-28,0.5-35.6,12.2
	c-7.8,11.9-6.7,27.2,3.4,38.1c8.8,9.5,15.1,20.3,17.6,33c5.8,29.4-8.2,55.5-36,67.5c-19.2,8.3-39.5,9.3-59.9,7.6
	C149,462.9,75.7,403.9,48.3,316.5C11.1,198.1,87,68.2,208.3,42.5c117.9-24.9,231.6,47.3,258.1,164.2
	C469.8,221.6,470.9,237,473.2,253.6z M447.4,253.5c-1.8-13.6-2.7-25.1-4.9-36.3c-19.7-101.5-118-169.1-220-151.5
	C136.7,80.5,70.7,153.6,65.1,240.2c-6.3,96.7,57.3,181,152.1,201.2c21.1,4.5,42.5,6.3,63.8,0.8c15.1-3.9,27.2-11.7,30.1-28.4
	c2.3-13.4-2.6-24.6-11.8-34.5c-17.1-18.3-20-45.2-7.6-66.5c12.4-21.4,37.2-32,61.5-26.7c11.2,2.4,20.2,8.2,28.6,15.8
	c22.1,19.7,50.8,12.3,59.6-15.8C445,275,445.8,263.2,447.4,253.5z"/>
<path d="M383.2,266.6c-21.4,0.1-38.3-16.6-38.3-38c0-20.9,16.8-37.9,37.7-38.1c20.9-0.2,38.4,17.2,38.4,38.2
	C421,249.6,404.2,266.5,383.2,266.6z M395.4,228.5c-0.1-7-5.6-12.4-12.5-12.3c-6.8,0-12.6,5.6-12.6,12.4c-0.1,7,6,13,13,12.8
	C390.1,241.1,395.5,235.4,395.4,228.5z"/>
<path d="M229.7,165c-21.4,0-38.3-16.9-38.1-38.2c0.1-20.8,17.2-37.8,38-37.9c21,0,38.4,17.5,38.2,38.4
	C267.7,148.2,250.6,165,229.7,165z M229.9,114.6c-6.8-0.1-12.7,5.4-13,12.1c-0.3,6.7,6,13.1,12.8,13.1c6.7,0,12.5-5.8,12.6-12.5
	C242.3,120.4,236.7,114.7,229.9,114.6z"/>
<path d="M229.8,343.1c21.2,0.1,38.3,17.4,38.1,38.4c-0.3,20.8-17.5,37.8-38.3,37.7c-21.1-0.1-38.2-17.5-38-38.6
	C191.8,359.6,208.8,343,229.8,343.1z M229.5,368.4c-6.6,0.1-12.6,6.1-12.6,12.6c0,6.9,6.2,12.8,13.2,12.5c6.9-0.2,12.3-6,12.2-12.8
	C242.1,374,236.2,368.3,229.5,368.4z"/>
<path d="M191.5,203.2c0,21.1-17.4,38.4-38.4,38.2c-20.8-0.2-37.9-17.4-37.9-38.1c0-20.7,17-37.9,37.8-38.2
	C174.1,164.9,191.5,182,191.5,203.2z M166.2,203.6c0.2-6.4-5.7-12.7-12.3-13c-6.6-0.3-12.7,5.3-13.1,12c-0.4,6.8,5.6,13.2,12.5,13.3
	C159.8,216.1,166,210.1,166.2,203.6z"/>
<path d="M191.5,305c-0.1,20.9-16.8,37.8-37.8,38c-20.9,0.2-38.5-17.3-38.4-38.2c0.1-20.7,17.2-37.9,38-38
	C174.3,266.6,191.6,283.8,191.5,305z M166.2,304.9c0.1-6.5-5.9-12.6-12.5-12.8c-6.6-0.2-12.7,5.6-12.9,12.3
	c-0.3,6.9,5.8,13.1,12.7,13.1C160.1,317.5,166.1,311.5,166.2,304.9z"/>
</svg>
