<?xml version="1.0" encoding="utf-8"?>
<!-- Generator: Adobe Illustrator 25.0.1, SVG Export Plug-In . SVG Version: 6.00 Build 0)  -->
<svg version="1.1" id="Layer_1" xmlns="http://www.w3.org/2000/svg" xmlns:xlink="http://www.w3.org/1999/xlink" x="0px" y="0px"
	 viewBox="0 0 512 512" style="enable-background:new 0 0 512 512;" xml:space="preserve">
<path d="M419.2,147.1h-46.1c10-9.1,16.8-21.5,18.5-35.7c0.9-7.9,0.1-15.2-2.3-21.3c-8.9-21.8-37.5-34.3-65.2-28.3
	c-0.2,0-0.4,0.1-0.7,0.2c-16.4,5.1-34,21.9-52.3,50c-6.2,9.6-11.5,18.7-15.3,25.9c-3.8-7.1-9-16.3-15.3-25.9
	c-18.3-28.1-35.9-44.9-52.3-50c-0.2-0.1-0.4-0.1-0.7-0.2c-14.1-3-28.7-1.4-41.2,4.4c-3.8,1.8-5.5,6.4-3.7,10.2
	c1.8,3.8,6.4,5.5,10.2,3.7c9.3-4.3,20.6-5.6,31.2-3.4c22.2,7.2,46.9,46.6,59.4,70.3h-65.1c-17,0-32.5-9.8-39.5-25
	c-1.8-3.8-6.3-5.5-10.2-3.8c-3.8,1.8-5.5,6.3-3.8,10.2c3.3,7.2,8,13.4,13.7,18.6H92.4c-4.2,0-7.7,3.4-7.7,7.7v79
	c0,4.2,3.4,7.7,7.7,7.7h8.5V444c0,4.2,3.4,7.7,7.7,7.7H403c4.2,0,7.7-3.4,7.7-7.7V241.4h8.5c4.2,0,7.7-3.4,7.7-7.7v-79
	C426.9,150.5,423.4,147.1,419.2,147.1z M327.6,76.7c20.2-4.2,41.4,4.4,47.4,19.2c1.5,3.6,1.9,8.4,1.3,13.7
	c-2.6,21.4-21.1,37.5-43.1,37.5h-65.1C280.7,123.3,305.4,83.9,327.6,76.7z M100,226v-63.6h93.5V226H100z M287.6,436.4H116.2v-195
	h92.4v141.2c0,4.2,3.4,7.7,7.7,7.7c4.2,0,7.7-3.4,7.7-7.7V241.4h63.6V436.4z M302.7,226h-93.8v-63.6h93.8V226z M395.4,436.4H303
	v-195h92.4L395.4,436.4L395.4,436.4z M411.5,226h-93.5v-63.6h93.5V226z"/>
<path d="M224,413.3c0,4.3-3.4,7.7-7.7,7.7s-7.7-3.4-7.7-7.7c0-4.3,3.4-7.7,7.7-7.7S224,409.1,224,413.3z"/>
<path d="M137.2,95.3c0,4.3-3.4,7.7-7.7,7.7s-7.7-3.4-7.7-7.7c0-4.3,3.4-7.7,7.7-7.7S137.2,91,137.2,95.3z"/>
</svg>
