<?xml version="1.0" encoding="utf-8"?>
<!-- Generator: Adobe Illustrator 25.0.1, SVG Export Plug-In . SVG Version: 6.00 Build 0)  -->
<svg version="1.1" id="Capa_1" xmlns="http://www.w3.org/2000/svg" xmlns:xlink="http://www.w3.org/1999/xlink" x="0px" y="0px"
	 viewBox="0 0 512 512" style="enable-background:new 0 0 512 512;" xml:space="preserve">
<path d="M74.8,286.4c-11.2-3-18.5-8.7-18.7-20c-0.2-10.6,6.1-16.9,16.3-20.2c-4.3-10.2-4.5-20.1,2.2-29.2c6.7-9,16.3-11.1,27.4-10.9
	c0.1-2.6,0.3-4.9,0.4-7.2c1-21.3,14.6-38.3,35.6-42.2c14.7-2.7,24.5-10.1,30.2-23.7c3.2-7.4,7.2-14.5,11-22.1
	c28.1,14.9,45.4,36.9,48.9,68.3c37.5,7.3,48,29.7,31.5,66.2c14.3,2.8,20.8,8.5,21.6,18.8c0.9,10.7-4.6,17.5-18.5,22.3
	c5.1,6.3,10.3,12.1,14.6,18.5c2.2,3.3,4,7.6,4,11.5c0.3,28.2,0.3,56.5,0,84.8c0,3.7-1.6,7.9-3.8,10.9c-7.2,9.8-14.9,19.3-22.9,28.6
	c-1.9,2.2-5.6,4-8.4,4c-51.8,0.2-103.6,0.2-155.4,0c-2.7,0-6.1-1.8-7.9-3.8c-8.3-9.8-16.3-19.8-24.1-30c-1.7-2.2-2.8-5.3-2.8-8.1
	c-0.2-29.5-0.2-59.1,0-88.6c0-2.7,1.3-5.7,3-8C63.8,299.8,69,293.6,74.8,286.4z M185.3,130.4c-0.7,0.5-1.1,0.7-1.3,1
	c-1.1,2-2.4,4.1-3.3,6.2c-7.5,17.9-20.4,28.7-40,32.1c-15.3,2.6-24.3,14.9-25.2,30.6c-0.2,4.4,1.1,6.2,5.7,6
	c6.8-0.3,13.6-0.1,20.1-0.1c2.4,13,2.1,13.4-9.5,13.4c-12,0-24-0.2-36,0.2c-8.2,0.2-13.3,5.9-13.1,13.6c0.2,7.3,5.5,12.6,13.4,12.6
	c44.3,0.1,88.6,0.2,132.9-0.1c14.4-0.1,25.6-11.8,25.9-25.9c0.3-14.2-11-26.1-25.7-26.7c-7.3-0.3-14.6-0.1-21.8-0.1
	c-8.3,0-16.5,0-25,0c0-4.8,0-8.7,0-13.5c10.8,0,21.1,0,32.1,0C211.9,158,202,142.1,185.3,130.4z M267.7,326.3
	c-1.2-0.3-1.8-0.6-2.4-0.6c-63.8,0-127.6,0-191.4-0.1c-4.2,0-4.9,1.9-4.9,5.5c0.1,18.8,0,37.7,0.1,56.5c0,1.2,0.3,2.5,0.5,4
	c66.1,0,131.9,0,198.1,0C267.7,369.8,267.7,348.2,267.7,326.3z M266.1,312.1c-7.1-8.9-13.1-16.6-19.5-24.1c-1.2-1.4-4.1-2.1-6.2-2.1
	c-47.8-0.1-95.5-0.1-143.3-0.1c-1.7,0-4.1-0.2-4.9,0.7c-6.8,8-13.4,16.2-20.9,25.5C136.9,312.1,200.6,312.1,266.1,312.1z
	 M71.4,405.5c7,8.8,13,16.6,19.4,24c1.3,1.5,4.1,2.2,6.2,2.2c47.7,0.1,95.4,0.1,143.2,0c1.8,0,4.4,0,5.4-1.2
	c6.7-7.8,13.1-16,20.5-25C200.6,405.5,136.7,405.5,71.4,405.5z M168.7,272.6c8.4,0,16.7,0,25.1,0c21.8,0,43.7,0,65.5,0
	c4.5,0,8.4-1.2,8.6-6.5c0.2-5.4-3.8-6.6-8.3-6.8c-1.3,0-2.6,0-3.9,0c-58,0-116.1,0-174.1,0c-1.9,0-4.3-0.6-5.7,0.3
	c-2.5,1.7-4.4,4.3-6.6,6.5c2.3,2.1,4.3,4.7,6.9,6.3c1.4,0.9,3.8,0.2,5.7,0.2C110.9,272.6,139.8,272.6,168.7,272.6z"/>
<path d="M294.2,34.1c58.5,0,115.4,0,172.7,0c0,18.1,0.8,36-0.2,53.8c-2.7,48.5-6.3,96.9-9.4,145.4c-3.3,49.8-6.6,99.5-9.5,149.3
	c-0.8,13-0.2,26.1-0.4,39.2c-0.2,15.7-7.7,23.2-23.3,23.2c-28.9,0-57.8,0-86.7,0c-14.7,0-23-8-22.8-22.5c0.7-57.9-5.6-115.4-8.9-173
	c-2.8-48.7-6.4-97.4-9.2-146.1C295.1,80.5,294.9,57.6,294.2,34.1z M436.2,351.7c5.8-88.5,11.5-176.4,17.3-264.5
	c-48.8,0-96.4,0-144.9,0c5.8,88.4,11.5,176.3,17.3,264.5C362.7,351.7,399,351.7,436.2,351.7z M328,392.1c0,10.8-0.1,20.8,0,30.8
	c0.1,6.6,2.3,8.7,9.1,8.8c6.6,0.1,13.3,0,19.9,0c22.3,0,44.5,0,66.8,0c4.7,0,9.7-0.4,10-6.4c0.4-10.8,0.1-21.7,0.1-33.2
	c-6.3,0-12.1-0.2-17.8,0.2c-1.3,0.1-3,2-3.6,3.5c-5.6,14.2-15.8,22.3-31.2,22.4c-15.6,0.1-26.1-7.9-31.7-22.5
	c-0.6-1.4-2.4-3.3-3.7-3.4C340.1,391.9,334.4,392.1,328,392.1z M434.8,365.9c-36.2,0-71.8,0-107.3,0c-1.4,12.8-1.4,12.8,10.5,12.8
	c29.3,0,58.5,0,87.8,0c9.1,0,9.1,0,9.2-9.2C435,368.4,434.9,367.3,434.8,365.9z M454,73.3c0-8,0.2-15.3-0.2-22.5
	c-0.1-1.4-2.9-3.7-4.3-3.6c-3,0.1-8.3,1.3-8.4,2.5c-0.8,7.7-0.4,15.6-0.4,23.6C445.5,73.3,449.3,73.3,454,73.3z M374.2,73.3
	c0-8,0.1-15.6-0.1-23.2c0-1.1-1.9-2.7-3.1-2.9c-3-0.4-6.1-0.1-9.3-0.1c0,9.4,0,17.8,0,26.2C366,73.3,369.7,73.3,374.2,73.3z
	 M347.8,73c0-7.1-0.2-13.8,0.1-20.6c0.2-4.2-1.4-5.3-5.5-5.5c-6.1-0.4-8.6,1.5-7.8,7.7c0.4,2.7,0.1,5.5,0.1,8.3
	C334.6,74.7,334.6,74.7,347.8,73z M414.8,47.3c0,9,0,17.4,0,25.8c4.4,0,8.2,0,12,0c0-8.9,0-17.3,0-25.8
	C422.5,47.3,419,47.3,414.8,47.3z M363.2,392.3c3.4,8.9,10.6,13.5,19.6,12.7c7.7-0.6,13.9-5.7,15.4-12.7
	C386.7,392.3,375.3,392.3,363.2,392.3z M320.8,47.6c-4.3,0-8.3,0-12.4,0c0,8.8,0,17,0,25.6c4.3,0,8.2,0,12.4,0
	C320.8,64.7,320.8,56.7,320.8,47.6z M387.6,73.6c3,0,5.1-0.2,7.2,0c4.8,0.6,6.5-1.3,6.2-6.1c-0.4-5.5-0.1-11.1-0.1-16.6
	c0-5.3-4.1-3.8-6.9-3.9c-2.8-0.1-6.4-1.1-6.3,3.8C387.6,58.1,387.6,65.3,387.6,73.6z"/>
<path d="M155.2,206.5c4.9,0,8.7,0,13.7,0c-0.4,4.4,0.5,9.4-1.6,12.1c-1.4,1.8-9,1.9-10.3,0.1C154.8,215.9,155.7,210.9,155.2,206.5z"
	/>
<path d="M82.5,339.2c58,0,114.9,0,172.5,0c0,12.3,0.1,24.2-0.1,36.1c0,1.1-1.7,2.6-3,3.1c-1.5,0.6-3.4,0.2-5.1,0.2
	c-52,0-104.1-0.1-156.1,0.1c-6.5,0-8.6-1.6-8.3-8.2C83,360.4,82.5,350.1,82.5,339.2z M241.2,352.7c-48.6,0-96.7,0-144.9,0
	c0,4.3,0,8.1,0,12.2c48.4,0,96.4,0,144.9,0C241.2,360.8,241.2,356.8,241.2,352.7z"/>
<path d="M427.4,220.1c0,17.1,0.1,34.2,0,51.3c-0.2,26.8-20.3,47.5-46.1,47.6c-25.9,0.2-46.4-20.3-46.6-47.1
	c-0.3-35.3-0.3-70.6,0.1-105.9c0.3-24.5,18.7-44,42.5-45.8c24-1.9,44.9,14.2,49.5,38.3c0.6,3.3,0.6,6.8,0.7,10.2
	C427.4,185.8,427.4,202.9,427.4,220.1z M347.9,219.6C347.9,219.6,347.9,219.6,347.9,219.6c-0.1,17.1-0.3,34.2,0,51.3
	c0.3,20.1,14,34.4,32.9,34.5c18.7,0.2,33.2-14.2,33.4-34.1c0.3-34.7,0.2-69.3,0-104c-0.1-12.6-5.4-22.8-16.5-29.4
	c-21.8-12.8-48.6,1.9-49.6,27.7C347.4,183.7,347.9,201.7,347.9,219.6z"/>
</svg>
