<?xml version="1.0" encoding="utf-8"?>
<!-- Generator: Adobe Illustrator 25.0.1, SVG Export Plug-In . SVG Version: 6.00 Build 0)  -->
<svg version="1.1" id="Capa_1" xmlns="http://www.w3.org/2000/svg" xmlns:xlink="http://www.w3.org/1999/xlink" x="0px" y="0px"
	 viewBox="0 0 512 512" style="enable-background:new 0 0 512 512;" xml:space="preserve">
<g>
	<path d="M228.3,308.6c2.7,2.7,7,2.7,9.7,0l61.2-61.2v14.4c0,3.8,3.1,6.9,6.9,6.9c3.8,0,6.9-3.1,6.9-6.9v-25.3
		c0-3.7-2.2-7.1-5.7-8.5c-3.4-1.4-7.4-0.6-10,2l-68.9,68.9C225.6,301.6,225.6,305.9,228.3,308.6L228.3,308.6z M256,59.3
		c3.8,0,6.9-3.1,6.9-6.9s-3.1-6.9-6.9-6.9s-6.9,3.1-6.9,6.9C249.1,56.2,252.2,59.3,256,59.3z M204.7,284c3.4,1.4,7.4,0.7,10-2
		l68.9-68.9c2.7-2.7,2.7-7,0-9.7c-2.7-2.7-7-2.7-9.7,0l-61.2,61.2v-14.4c0-3.8-3.1-6.9-6.9-6.9c-3.8,0-6.9,3.1-6.9,6.9v25.3
		C199.1,279.3,201.3,282.6,204.7,284L204.7,284z M120.3,299.3c4.6,0,8.3,4.5,8.3,9.9c0,3.8,3.1,6.9,6.9,6.9c3.8,0,6.9-3.1,6.9-6.9
		c0-13-9.9-23.6-22-23.6H117v-5.8c0-3.8-3.1-6.9-6.9-6.9c-3.8,0-6.9,3.1-6.9,6.9v5.8H100c-12.1,0-22,10.6-22,23.6v11.2
		c0,13,9.9,23.6,22,23.6h3.3v31H100c-4.6,0-8.3-4.5-8.3-9.9c0-3.8-3.1-6.9-6.9-6.9c-3.8,0-6.9,3.1-6.9,6.9c0,13,9.9,23.6,22,23.6
		h3.3v5.8c0,3.8,3.1,6.9,6.9,6.9c3.8,0,6.9-3.1,6.9-6.9v-5.8h3.3c12.1,0,22-10.6,22-23.6v-11.2c0-13-9.9-23.6-22-23.6H117v-31
		L120.3,299.3z M103.3,330.3H100c-4.6,0-8.3-4.5-8.3-9.9v-11.2c0-5.5,3.7-9.9,8.3-9.9h3.3V330.3z M120.3,344c4.6,0,8.3,4.5,8.3,9.9
		v11.2c0,5.5-3.7,9.9-8.3,9.9H117v-31L120.3,344z M403.6,88.5V65.4c0-23.9-19.5-43.4-43.4-43.4H151.8c-23.9,0-43.4,19.5-43.4,43.4
		v185.3C60.6,251.7,22,290.1,22,337.1s38.6,85.5,86.4,86.4v23.1c0,23.9,19.5,43.4,43.4,43.4h208.4c23.9,0,43.4-19.5,43.4-43.4V261.2
		c47.8-0.9,86.4-39.3,86.4-86.4S451.4,89.4,403.6,88.5L403.6,88.5z M110.1,409.8c-41,0-74.4-32.6-74.4-72.7
		c0-40.1,33.4-72.7,74.4-72.7c41,0,74.4,32.6,74.4,72.7c0,5.9-0.7,11.9-2.2,17.6c-0.9,3.7,1.3,7.4,4.9,8.3c3.7,0.9,7.4-1.3,8.3-4.9
		c1.7-6.8,2.6-13.9,2.6-21c0-33.8-19.9-63.1-48.8-77.3V70c0-3.8,3.1-6.9,6.9-6.9h25.2c0.1,0,0.2,0.1,0.3,0.1
		c0.1,0.1,0.1,0.2,0.1,0.3c0,10.6,8.6,19.2,19.2,19.2h27.3c3.8,0,6.9-3.1,6.9-6.9c0-3.8-3.1-6.9-6.9-6.9h-27.3c-3,0-5.5-2.5-5.5-5.5
		c0-3.8-1.5-7.3-4.2-10c-2.7-2.7-6.2-4.1-10-4.1h-25.2c-11.3,0-20.6,9.2-20.6,20.6v184.5c-4.4-1.3-9-2.3-13.7-2.9V65.4
		c0-16.4,13.3-29.7,29.7-29.7h208.4c16.4,0,29.7,13.3,29.7,29.7v23.8c-4.7,0.6-9.3,1.6-13.7,2.9V70c0-11.3-9.2-20.6-20.6-20.6h-25.2
		c-7.8,0-14.2,6.4-14.2,14.2c0,3-2.5,5.5-5.5,5.5h-50.2c-3.8,0-6.9,3.1-6.9,6.9c0,3.8,3.1,6.9,6.9,6.9h50.2
		c10.6,0,19.2-8.6,19.2-19.2c0-0.3,0.2-0.5,0.5-0.5h25.2c3.8,0,6.9,3.1,6.9,6.9v27.6c-28.9,14.2-48.8,43.5-48.8,77.3
		s19.9,63.1,48.8,77.3V442c0,3.8-3.1,6.9-6.9,6.9H156.4c-3.8,0-6.9-3.1-6.9-6.9v-27.7c12.2-6,23-14.7,31.3-25.7
		c2.3-3,1.7-7.3-1.3-9.6c-3-2.3-7.3-1.7-9.6,1.3C155.9,398.8,133.6,409.8,110.1,409.8L110.1,409.8z M389.9,446.6
		c0,16.4-13.3,29.7-29.7,29.7H151.8c-16.4,0-29.7-13.3-29.7-29.7v-23.9c4.7-0.6,9.2-1.6,13.7-3V442c0,11.3,9.2,20.6,20.6,20.6h199.3
		c11.3,0,20.6-9.2,20.6-20.6V257.5c4.4,1.3,9,2.3,13.7,2.9V446.6z M401.9,247.6c-41,0-74.4-32.6-74.4-72.7s33.4-72.7,74.4-72.7
		s74.4,32.6,74.4,72.7C476.3,214.9,442.9,247.6,401.9,247.6z M412,137c4.6,0,8.3,4.5,8.3,9.9c0,3.8,3.1,6.9,6.9,6.9s6.9-3.1,6.9-6.9
		c0-13-9.9-23.6-22-23.6h-3.3v-5.8c0-3.8-3.1-6.9-6.9-6.9c-3.8,0-6.9,3.1-6.9,6.9v5.8h-3.3c-12.1,0-22,10.6-22,23.6v11.2
		c0,6.2,2.2,12,6.2,16.5c4.2,4.6,9.8,7.2,15.8,7.2h3.3v31h-3.3c-4.6,0-8.3-4.5-8.3-9.9c0-3.8-3.1-6.9-6.9-6.9
		c-3.8,0-6.9,3.1-6.9,6.9c0,13,9.9,23.6,22,23.6h3.3v5.8c0,3.8,3.1,6.9,6.9,6.9c3.8,0,6.9-3.1,6.9-6.9v-5.8h3.3
		c12.1,0,22-10.6,22-23.6v-11.2c0-6.2-2.2-12-6.2-16.5c-4.2-4.6-9.8-7.2-15.8-7.2h-3.3v-31L412,137z M395,168h-3.3
		c-2.1,0-4.1-0.9-5.6-2.7c-1.7-1.9-2.7-4.5-2.7-7.3v-11.2c0-5.5,3.7-9.9,8.3-9.9h3.3V168z M412,181.7c2.1,0,4.1,0.9,5.6,2.7
		c1.7,1.9,2.7,4.5,2.7,7.3v11.2c0,5.5-3.7,9.9-8.3,9.9h-3.3v-31H412z"/>
</g>
</svg>
